<?xml version="1.0" encoding="UTF-8" standalone="no"?>
<!DOCTYPE svg PUBLIC "-//W3C//DTD SVG 1.1//EN"
 "http://www.w3.org/Graphics/SVG/1.1/DTD/svg11.dtd">
<!-- Generated by graphviz version 12.2.1 (20241206.2353)
 -->
<!-- Title: G Pages: 1 -->
<svg width="626pt" height="1117pt"
 viewBox="0.00 0.00 625.70 1116.95" xmlns="http://www.w3.org/2000/svg" xmlns:xlink="http://www.w3.org/1999/xlink">
<g id="graph0" class="graph" transform="scale(1 1) rotate(0) translate(21.6 1095.35)">
<title>G</title>
<polygon fill="#111111" stroke="none" points="-21.6,21.6 -21.6,-1095.35 604.1,-1095.35 604.1,21.6 -21.6,21.6"/>
<!-- CLAUDE.md -->
<g id="node1" class="node">
<title>CLAUDE.md</title>
<path fill="none" stroke="#cfffac" d="M176.46,-23.75C176.46,-23.75 98.29,-23.75 98.29,-23.75 94.33,-23.75 90.38,-19.79 90.38,-15.83 90.38,-15.83 90.38,-7.92 90.38,-7.92 90.38,-3.96 94.33,0 98.29,0 98.29,0 176.46,0 176.46,0 180.42,0 184.38,-3.96 184.38,-7.92 184.38,-7.92 184.38,-15.83 184.38,-15.83 184.38,-19.79 180.42,-23.75 176.46,-23.75"/>
<text text-anchor="middle" x="137.38" y="-6.45" font-family="Arial" font-size="14.00" fill="#cfffac">CLAUDE.md</text>
</g>
<!-- TEMPLATE_USAGE.md -->
<g id="node2" class="node">
<title>TEMPLATE_USAGE.md</title>
<path fill="none" stroke="#cfffac" d="M212.46,-65.75C212.46,-65.75 62.29,-65.75 62.29,-65.75 58.33,-65.75 54.38,-61.79 54.38,-57.83 54.38,-57.83 54.38,-49.92 54.38,-49.92 54.38,-45.96 58.33,-42 62.29,-42 62.29,-42 212.46,-42 212.46,-42 216.42,-42 220.38,-45.96 220.38,-49.92 220.38,-49.92 220.38,-57.83 220.38,-57.83 220.38,-61.79 216.42,-65.75 212.46,-65.75"/>
<text text-anchor="middle" x="137.38" y="-48.45" font-family="Arial" font-size="14.00" fill="#cfffac">TEMPLATE_USAGE.md</text>
</g>
<!-- apps/docs/eslint.config.ts -->
<g id="node3" class="node">
<title>apps/docs/eslint.config.ts</title>
<path fill="none" stroke="#cfffac" d="M212.83,-107.75C212.83,-107.75 61.92,-107.75 61.92,-107.75 57.96,-107.75 54,-103.79 54,-99.83 54,-99.83 54,-91.92 54,-91.92 54,-87.96 57.96,-84 61.92,-84 61.92,-84 212.83,-84 212.83,-84 216.79,-84 220.75,-87.96 220.75,-91.92 220.75,-91.92 220.75,-99.83 220.75,-99.83 220.75,-103.79 216.79,-107.75 212.83,-107.75"/>
<text text-anchor="middle" x="137.38" y="-90.45" font-family="Arial" font-size="14.00" fill="#cfffac">apps/docs/eslint.config.ts</text>
</g>
<!-- apps/docs/stories/button.stories.tsx -->
<g id="node4" class="node">
<title>apps/docs/stories/button.stories.tsx</title>
<path fill="none" stroke="#cfffac" d="M242.83,-149.75C242.83,-149.75 31.92,-149.75 31.92,-149.75 27.96,-149.75 24,-145.79 24,-141.83 24,-141.83 24,-133.92 24,-133.92 24,-129.96 27.96,-126 31.92,-126 31.92,-126 242.83,-126 242.83,-126 246.79,-126 250.75,-129.96 250.75,-133.92 250.75,-133.92 250.75,-141.83 250.75,-141.83 250.75,-145.79 246.79,-149.75 242.83,-149.75"/>
<text text-anchor="middle" x="137.38" y="-132.45" font-family="Arial" font-size="14.00" fill="#cfffac">apps/docs/stories/button.stories.tsx</text>
</g>
<!-- apps/web/eslint.config.ts -->
<g id="node5" class="node">
<title>apps/web/eslint.config.ts</title>
<path fill="none" stroke="#cfffac" d="M210.96,-191.75C210.96,-191.75 63.79,-191.75 63.79,-191.75 59.83,-191.75 55.88,-187.79 55.88,-183.83 55.88,-183.83 55.88,-175.92 55.88,-175.92 55.88,-171.96 59.83,-168 63.79,-168 63.79,-168 210.96,-168 210.96,-168 214.92,-168 218.88,-171.96 218.88,-175.92 218.88,-175.92 218.88,-183.83 218.88,-183.83 218.88,-187.79 214.92,-191.75 210.96,-191.75"/>
<text text-anchor="middle" x="137.38" y="-174.45" font-family="Arial" font-size="14.00" fill="#cfffac">apps/web/eslint.config.ts</text>
</g>
<!-- apps/web/src/app/example&#45;article/page.tsx -->
<g id="node6" class="node">
<title>apps/web/src/app/example&#45;article/page.tsx</title>
<path fill="none" stroke="#cfffac" d="M265.71,-233.75C265.71,-233.75 9.04,-233.75 9.04,-233.75 5.08,-233.75 1.12,-229.79 1.12,-225.83 1.12,-225.83 1.12,-217.92 1.12,-217.92 1.12,-213.96 5.08,-210 9.04,-210 9.04,-210 265.71,-210 265.71,-210 269.67,-210 273.62,-213.96 273.62,-217.92 273.62,-217.92 273.62,-225.83 273.62,-225.83 273.62,-229.79 269.67,-233.75 265.71,-233.75"/>
<text text-anchor="middle" x="137.38" y="-216.45" font-family="Arial" font-size="14.00" fill="#cfffac">apps/web/src/app/example&#45;article/page.tsx</text>
</g>
<!-- apps/web/src/app/layout.tsx -->
<g id="node7" class="node">
<title>apps/web/src/app/layout.tsx</title>
<path fill="none" stroke="#cfffac" d="M220.71,-275.75C220.71,-275.75 54.04,-275.75 54.04,-275.75 50.08,-275.75 46.12,-271.79 46.12,-267.83 46.12,-267.83 46.12,-259.92 46.12,-259.92 46.12,-255.96 50.08,-252 54.04,-252 54.04,-252 220.71,-252 220.71,-252 224.67,-252 228.62,-255.96 228.62,-259.92 228.62,-259.92 228.62,-267.83 228.62,-267.83 228.62,-271.79 224.67,-275.75 220.71,-275.75"/>
<text text-anchor="middle" x="137.38" y="-258.45" font-family="Arial" font-size="14.00" fill="#cfffac">apps/web/src/app/layout.tsx</text>
</g>
<!-- apps/web/src/app/opengraph&#45;image.tsx -->
<g id="node8" class="node">
<title>apps/web/src/app/opengraph&#45;image.tsx</title>
<path fill="none" stroke="#cfffac" d="M255.96,-317.75C255.96,-317.75 18.79,-317.75 18.79,-317.75 14.83,-317.75 10.88,-313.79 10.88,-309.83 10.88,-309.83 10.88,-301.92 10.88,-301.92 10.88,-297.96 14.83,-294 18.79,-294 18.79,-294 255.96,-294 255.96,-294 259.92,-294 263.88,-297.96 263.88,-301.92 263.88,-301.92 263.88,-309.83 263.88,-309.83 263.88,-313.79 259.92,-317.75 255.96,-317.75"/>
<text text-anchor="middle" x="137.38" y="-300.45" font-family="Arial" font-size="14.00" fill="#cfffac">apps/web/src/app/opengraph&#45;image.tsx</text>
</g>
<!-- apps/web/src/app/page.tsx -->
<g id="node9" class="node">
<title>apps/web/src/app/page.tsx</title>
<path fill="none" stroke="#cfffac" d="M217.71,-359.75C217.71,-359.75 57.04,-359.75 57.04,-359.75 53.08,-359.75 49.12,-355.79 49.12,-351.83 49.12,-351.83 49.12,-343.92 49.12,-343.92 49.12,-339.96 53.08,-336 57.04,-336 57.04,-336 217.71,-336 217.71,-336 221.67,-336 225.62,-339.96 225.62,-343.92 225.62,-343.92 225.62,-351.83 225.62,-351.83 225.62,-355.79 221.67,-359.75 217.71,-359.75"/>
<text text-anchor="middle" x="137.38" y="-342.45" font-family="Arial" font-size="14.00" fill="#cfffac">apps/web/src/app/page.tsx</text>
</g>
<!-- apps/web/src/components/button&#45;link.tsx -->
<g id="node10" class="node">
<title>apps/web/src/components/button&#45;link.tsx</title>
<path fill="none" stroke="#cfffac" d="M259.71,-401.75C259.71,-401.75 15.04,-401.75 15.04,-401.75 11.08,-401.75 7.12,-397.79 7.12,-393.83 7.12,-393.83 7.12,-385.92 7.12,-385.92 7.12,-381.96 11.08,-378 15.04,-378 15.04,-378 259.71,-378 259.71,-378 263.67,-378 267.62,-381.96 267.62,-385.92 267.62,-385.92 267.62,-393.83 267.62,-393.83 267.62,-397.79 263.67,-401.75 259.71,-401.75"/>
<text text-anchor="middle" x="137.38" y="-384.45" font-family="Arial" font-size="14.00" fill="#cfffac">apps/web/src/components/button&#45;link.tsx</text>
</g>
<!-- apps/web/src/components/json&#45;ld&#45;script.tsx -->
<g id="node11" class="node">
<title>apps/web/src/components/json&#45;ld&#45;script.tsx</title>
<path fill="none" stroke="#cfffac" d="M266.83,-443.75C266.83,-443.75 7.92,-443.75 7.92,-443.75 3.96,-443.75 0,-439.79 0,-435.83 0,-435.83 0,-427.92 0,-427.92 0,-423.96 3.96,-420 7.92,-420 7.92,-420 266.83,-420 266.83,-420 270.79,-420 274.75,-423.96 274.75,-427.92 274.75,-427.92 274.75,-435.83 274.75,-435.83 274.75,-439.79 270.79,-443.75 266.83,-443.75"/>
<text text-anchor="middle" x="137.38" y="-426.45" font-family="Arial" font-size="14.00" fill="#cfffac">apps/web/src/components/json&#45;ld&#45;script.tsx</text>
</g>
<!-- apps/web/src/components/providers.tsx -->
<g id="node12" class="node">
<title>apps/web/src/components/providers.tsx</title>
<path fill="none" stroke="#cfffac" d="M256.33,-485.75C256.33,-485.75 18.42,-485.75 18.42,-485.75 14.46,-485.75 10.5,-481.79 10.5,-477.83 10.5,-477.83 10.5,-469.92 10.5,-469.92 10.5,-465.96 14.46,-462 18.42,-462 18.42,-462 256.33,-462 256.33,-462 260.29,-462 264.25,-465.96 264.25,-469.92 264.25,-469.92 264.25,-477.83 264.25,-477.83 264.25,-481.79 260.29,-485.75 256.33,-485.75"/>
<text text-anchor="middle" x="137.38" y="-468.45" font-family="Arial" font-size="14.00" fill="#cfffac">apps/web/src/components/providers.tsx</text>
</g>
<!-- apps/web/src/const/sns.ts -->
<g id="node13" class="node">
<title>apps/web/src/const/sns.ts</title>
<path fill="none" stroke="#cfffac" d="M214.71,-527.75C214.71,-527.75 60.04,-527.75 60.04,-527.75 56.08,-527.75 52.12,-523.79 52.12,-519.83 52.12,-519.83 52.12,-511.92 52.12,-511.92 52.12,-507.96 56.08,-504 60.04,-504 60.04,-504 214.71,-504 214.71,-504 218.67,-504 222.62,-507.96 222.62,-511.92 222.62,-511.92 222.62,-519.83 222.62,-519.83 222.62,-523.79 218.67,-527.75 214.71,-527.75"/>
<text text-anchor="middle" x="137.38" y="-510.45" font-family="Arial" font-size="14.00" fill="#cfffac">apps/web/src/const/sns.ts</text>
</g>
<!-- apps/web/src/lib/fonts/index.ts -->
<g id="node14" class="node">
<title>apps/web/src/lib/fonts/index.ts</title>
<path fill="none" stroke="#c6c5fe" d="M227.46,-569.75C227.46,-569.75 47.29,-569.75 47.29,-569.75 43.33,-569.75 39.38,-565.79 39.38,-561.83 39.38,-561.83 39.38,-553.92 39.38,-553.92 39.38,-549.96 43.33,-546 47.29,-546 47.29,-546 227.46,-546 227.46,-546 231.42,-546 235.38,-549.96 235.38,-553.92 235.38,-553.92 235.38,-561.83 235.38,-561.83 235.38,-565.79 231.42,-569.75 227.46,-569.75"/>
<text text-anchor="middle" x="137.38" y="-552.45" font-family="Arial" font-size="14.00" fill="#c6c5fe">apps/web/src/lib/fonts/index.ts</text>
</g>
<!-- apps/web/src/lib/fonts/noto&#45;sans.ts -->
<g id="node15" class="node">
<title>apps/web/src/lib/fonts/noto&#45;sans.ts</title>
<path fill="none" stroke="#cfffac" d="M550.21,-590.75C550.21,-590.75 343.04,-590.75 343.04,-590.75 339.08,-590.75 335.12,-586.79 335.12,-582.83 335.12,-582.83 335.12,-574.92 335.12,-574.92 335.12,-570.96 339.08,-567 343.04,-567 343.04,-567 550.21,-567 550.21,-567 554.17,-567 558.12,-570.96 558.12,-574.92 558.12,-574.92 558.12,-582.83 558.12,-582.83 558.12,-586.79 554.17,-590.75 550.21,-590.75"/>
<text text-anchor="middle" x="446.62" y="-573.45" font-family="Arial" font-size="14.00" fill="#cfffac">apps/web/src/lib/fonts/noto&#45;sans.ts</text>
</g>
<!-- apps/web/src/lib/fonts/index.ts&#45;&gt;apps/web/src/lib/fonts/noto&#45;sans.ts -->
<g id="edge1" class="edge">
<title>apps/web/src/lib/fonts/index.ts&#45;&gt;apps/web/src/lib/fonts/noto&#45;sans.ts</title>
<path fill="none" stroke="#757575" d="M235.59,-564.52C263.57,-566.43 294.46,-568.54 323.73,-570.54"/>
<polygon fill="#757575" stroke="#757575" points="323.14,-574.01 333.35,-571.2 323.62,-567.03 323.14,-574.01"/>
</g>
<!-- apps/web/src/lib/fonts/noto&#45;serif.ts -->
<g id="node16" class="node">
<title>apps/web/src/lib/fonts/noto&#45;serif.ts</title>
<path fill="none" stroke="#cfffac" d="M548.71,-548.75C548.71,-548.75 344.54,-548.75 344.54,-548.75 340.58,-548.75 336.62,-544.79 336.62,-540.83 336.62,-540.83 336.62,-532.92 336.62,-532.92 336.62,-528.96 340.58,-525 344.54,-525 344.54,-525 548.71,-525 548.71,-525 552.67,-525 556.62,-528.96 556.62,-532.92 556.62,-532.92 556.62,-540.83 556.62,-540.83 556.62,-544.79 552.67,-548.75 548.71,-548.75"/>
<text text-anchor="middle" x="446.62" y="-531.45" font-family="Arial" font-size="14.00" fill="#cfffac">apps/web/src/lib/fonts/noto&#45;serif.ts</text>
</g>
<!-- apps/web/src/lib/fonts/index.ts&#45;&gt;apps/web/src/lib/fonts/noto&#45;serif.ts -->
<g id="edge2" class="edge">
<title>apps/web/src/lib/fonts/index.ts&#45;&gt;apps/web/src/lib/fonts/noto&#45;serif.ts</title>
<path fill="none" stroke="#757575" d="M235.59,-551.23C263.96,-549.29 295.32,-547.15 324.95,-545.12"/>
<polygon fill="#757575" stroke="#757575" points="324.97,-548.63 334.71,-544.46 324.49,-541.65 324.97,-548.63"/>
</g>
<!-- apps/web/src/lib/json&#45;ld/breadcrumb&#45;list.ts -->
<g id="node17" class="node">
<title>apps/web/src/lib/json&#45;ld/breadcrumb&#45;list.ts</title>
<path fill="none" stroke="#cfffac" d="M572.71,-758.75C572.71,-758.75 320.54,-758.75 320.54,-758.75 316.58,-758.75 312.62,-754.79 312.62,-750.83 312.62,-750.83 312.62,-742.92 312.62,-742.92 312.62,-738.96 316.58,-735 320.54,-735 320.54,-735 572.71,-735 572.71,-735 576.67,-735 580.62,-738.96 580.62,-742.92 580.62,-742.92 580.62,-750.83 580.62,-750.83 580.62,-754.79 576.67,-758.75 572.71,-758.75"/>
<text text-anchor="middle" x="446.62" y="-741.45" font-family="Arial" font-size="14.00" fill="#cfffac">apps/web/src/lib/json&#45;ld/breadcrumb&#45;list.ts</text>
</g>
<!-- apps/web/src/lib/json&#45;ld/generate&#45;json&#45;ld.ts -->
<g id="node18" class="node">
<title>apps/web/src/lib/json&#45;ld/generate&#45;json&#45;ld.ts</title>
<path fill="none" stroke="#cfffac" d="M574.58,-716.75C574.58,-716.75 318.67,-716.75 318.67,-716.75 314.71,-716.75 310.75,-712.79 310.75,-708.83 310.75,-708.83 310.75,-700.92 310.75,-700.92 310.75,-696.96 314.71,-693 318.67,-693 318.67,-693 574.58,-693 574.58,-693 578.54,-693 582.5,-696.96 582.5,-700.92 582.5,-700.92 582.5,-708.83 582.5,-708.83 582.5,-712.79 578.54,-716.75 574.58,-716.75"/>
<text text-anchor="middle" x="446.62" y="-699.45" font-family="Arial" font-size="14.00" fill="#cfffac">apps/web/src/lib/json&#45;ld/generate&#45;json&#45;ld.ts</text>
</g>
<!-- apps/web/src/lib/json&#45;ld/index.ts -->
<g id="node19" class="node">
<title>apps/web/src/lib/json&#45;ld/index.ts</title>
<path fill="none" stroke="#c6c5fe" d="M232.71,-695.75C232.71,-695.75 42.04,-695.75 42.04,-695.75 38.08,-695.75 34.12,-691.79 34.12,-687.83 34.12,-687.83 34.12,-679.92 34.12,-679.92 34.12,-675.96 38.08,-672 42.04,-672 42.04,-672 232.71,-672 232.71,-672 236.67,-672 240.62,-675.96 240.62,-679.92 240.62,-679.92 240.62,-687.83 240.62,-687.83 240.62,-691.79 236.67,-695.75 232.71,-695.75"/>
<text text-anchor="middle" x="137.38" y="-678.45" font-family="Arial" font-size="14.00" fill="#c6c5fe">apps/web/src/lib/json&#45;ld/index.ts</text>
</g>
<!-- apps/web/src/lib/json&#45;ld/index.ts&#45;&gt;apps/web/src/lib/json&#45;ld/breadcrumb&#45;list.ts -->
<g id="edge3" class="edge">
<title>apps/web/src/lib/json&#45;ld/index.ts&#45;&gt;apps/web/src/lib/json&#45;ld/breadcrumb&#45;list.ts</title>
<path fill="none" stroke="#757575" d="M241.06,-695.41C252.58,-697.96 264.02,-701.08 274.75,-704.88 292.21,-711.06 293.29,-719.68 310.75,-725.88 316.9,-728.06 323.29,-730.02 329.8,-731.77"/>
<polygon fill="#757575" stroke="#757575" points="328.81,-735.13 339.36,-734.17 330.51,-728.34 328.81,-735.13"/>
</g>
<!-- apps/web/src/lib/json&#45;ld/index.ts&#45;&gt;apps/web/src/lib/json&#45;ld/generate&#45;json&#45;ld.ts -->
<g id="edge4" class="edge">
<title>apps/web/src/lib/json&#45;ld/index.ts&#45;&gt;apps/web/src/lib/json&#45;ld/generate&#45;json&#45;ld.ts</title>
<path fill="none" stroke="#757575" d="M241.11,-690.9C259.79,-692.17 279.6,-693.53 299.26,-694.87"/>
<polygon fill="#757575" stroke="#757575" points="298.75,-698.34 308.97,-695.53 299.23,-691.36 298.75,-698.34"/>
</g>
<!-- apps/web/src/lib/json&#45;ld/local&#45;business.ts -->
<g id="node20" class="node">
<title>apps/web/src/lib/json&#45;ld/local&#45;business.ts</title>
<path fill="none" stroke="#cfffac" d="M568.58,-674.75C568.58,-674.75 324.67,-674.75 324.67,-674.75 320.71,-674.75 316.75,-670.79 316.75,-666.83 316.75,-666.83 316.75,-658.92 316.75,-658.92 316.75,-654.96 320.71,-651 324.67,-651 324.67,-651 568.58,-651 568.58,-651 572.54,-651 576.5,-654.96 576.5,-658.92 576.5,-658.92 576.5,-666.83 576.5,-666.83 576.5,-670.79 572.54,-674.75 568.58,-674.75"/>
<text text-anchor="middle" x="446.62" y="-657.45" font-family="Arial" font-size="14.00" fill="#cfffac">apps/web/src/lib/json&#45;ld/local&#45;business.ts</text>
</g>
<!-- apps/web/src/lib/json&#45;ld/index.ts&#45;&gt;apps/web/src/lib/json&#45;ld/local&#45;business.ts -->
<g id="edge5" class="edge">
<title>apps/web/src/lib/json&#45;ld/index.ts&#45;&gt;apps/web/src/lib/json&#45;ld/local&#45;business.ts</title>
<path fill="none" stroke="#757575" d="M241.11,-676.85C261.69,-675.45 283.64,-673.95 305.23,-672.47"/>
<polygon fill="#757575" stroke="#757575" points="305.24,-675.98 314.97,-671.8 304.76,-668.99 305.24,-675.98"/>
</g>
<!-- apps/web/src/lib/json&#45;ld/organization.ts -->
<g id="node21" class="node">
<title>apps/web/src/lib/json&#45;ld/organization.ts</title>
<path fill="none" stroke="#cfffac" d="M562.58,-632.75C562.58,-632.75 330.67,-632.75 330.67,-632.75 326.71,-632.75 322.75,-628.79 322.75,-624.83 322.75,-624.83 322.75,-616.92 322.75,-616.92 322.75,-612.96 326.71,-609 330.67,-609 330.67,-609 562.58,-609 562.58,-609 566.54,-609 570.5,-612.96 570.5,-616.92 570.5,-616.92 570.5,-624.83 570.5,-624.83 570.5,-628.79 566.54,-632.75 562.58,-632.75"/>
<text text-anchor="middle" x="446.62" y="-615.45" font-family="Arial" font-size="14.00" fill="#cfffac">apps/web/src/lib/json&#45;ld/organization.ts</text>
</g>
<!-- apps/web/src/lib/json&#45;ld/index.ts&#45;&gt;apps/web/src/lib/json&#45;ld/organization.ts -->
<g id="edge6" class="edge">
<title>apps/web/src/lib/json&#45;ld/index.ts&#45;&gt;apps/web/src/lib/json&#45;ld/organization.ts</title>
<path fill="none" stroke="#757575" d="M184.23,-671.58C218.83,-662.58 267.55,-650.48 310.75,-641.88 322.79,-639.47 335.49,-637.19 348.08,-635.06"/>
<polygon fill="#757575" stroke="#757575" points="348.3,-638.57 357.6,-633.49 347.16,-631.67 348.3,-638.57"/>
</g>
<!-- apps/web/src/lib/metadata.ts -->
<g id="node22" class="node">
<title>apps/web/src/lib/metadata.ts</title>
<path fill="none" stroke="#cfffac" d="M223.33,-737.75C223.33,-737.75 51.42,-737.75 51.42,-737.75 47.46,-737.75 43.5,-733.79 43.5,-729.83 43.5,-729.83 43.5,-721.92 43.5,-721.92 43.5,-717.96 47.46,-714 51.42,-714 51.42,-714 223.33,-714 223.33,-714 227.29,-714 231.25,-717.96 231.25,-721.92 231.25,-721.92 231.25,-729.83 231.25,-729.83 231.25,-733.79 227.29,-737.75 223.33,-737.75"/>
<text text-anchor="middle" x="137.38" y="-720.45" font-family="Arial" font-size="14.00" fill="#cfffac">apps/web/src/lib/metadata.ts</text>
</g>
<!-- packages/ui/eslint.config.ts -->
<g id="node23" class="node">
<title>packages/ui/eslint.config.ts</title>
<path fill="none" stroke="#cfffac" d="M218.08,-779.75C218.08,-779.75 56.67,-779.75 56.67,-779.75 52.71,-779.75 48.75,-775.79 48.75,-771.83 48.75,-771.83 48.75,-763.92 48.75,-763.92 48.75,-759.96 52.71,-756 56.67,-756 56.67,-756 218.08,-756 218.08,-756 222.04,-756 226,-759.96 226,-763.92 226,-763.92 226,-771.83 226,-771.83 226,-775.79 222.04,-779.75 218.08,-779.75"/>
<text text-anchor="middle" x="137.38" y="-762.45" font-family="Arial" font-size="14.00" fill="#cfffac">packages/ui/eslint.config.ts</text>
</g>
<!-- packages/ui/src/components/badge.tsx -->
<g id="node24" class="node">
<title>packages/ui/src/components/badge.tsx</title>
<path fill="none" stroke="#cfffac" d="M254.46,-821.75C254.46,-821.75 20.29,-821.75 20.29,-821.75 16.33,-821.75 12.38,-817.79 12.38,-813.83 12.38,-813.83 12.38,-805.92 12.38,-805.92 12.38,-801.96 16.33,-798 20.29,-798 20.29,-798 254.46,-798 254.46,-798 258.42,-798 262.38,-801.96 262.38,-805.92 262.38,-805.92 262.38,-813.83 262.38,-813.83 262.38,-817.79 258.42,-821.75 254.46,-821.75"/>
<text text-anchor="middle" x="137.38" y="-804.45" font-family="Arial" font-size="14.00" fill="#cfffac">packages/ui/src/components/badge.tsx</text>
</g>
<!-- packages/ui/src/components/button.tsx -->
<g id="node25" class="node">
<title>packages/ui/src/components/button.tsx</title>
<path fill="none" stroke="#cfffac" d="M254.46,-863.75C254.46,-863.75 20.29,-863.75 20.29,-863.75 16.33,-863.75 12.38,-859.79 12.38,-855.83 12.38,-855.83 12.38,-847.92 12.38,-847.92 12.38,-843.96 16.33,-840 20.29,-840 20.29,-840 254.46,-840 254.46,-840 258.42,-840 262.38,-843.96 262.38,-847.92 262.38,-847.92 262.38,-855.83 262.38,-855.83 262.38,-859.79 258.42,-863.75 254.46,-863.75"/>
<text text-anchor="middle" x="137.38" y="-846.45" font-family="Arial" font-size="14.00" fill="#cfffac">packages/ui/src/components/button.tsx</text>
</g>
<!-- packages/ui/src/components/card.tsx -->
<g id="node26" class="node">
<title>packages/ui/src/components/card.tsx</title>
<path fill="none" stroke="#cfffac" d="M248.83,-905.75C248.83,-905.75 25.92,-905.75 25.92,-905.75 21.96,-905.75 18,-901.79 18,-897.83 18,-897.83 18,-889.92 18,-889.92 18,-885.96 21.96,-882 25.92,-882 25.92,-882 248.83,-882 248.83,-882 252.79,-882 256.75,-885.96 256.75,-889.92 256.75,-889.92 256.75,-897.83 256.75,-897.83 256.75,-901.79 252.79,-905.75 248.83,-905.75"/>
<text text-anchor="middle" x="137.38" y="-888.45" font-family="Arial" font-size="14.00" fill="#cfffac">packages/ui/src/components/card.tsx</text>
</g>
<!-- packages/ui/src/lib/utils.ts -->
<g id="node27" class="node">
<title>packages/ui/src/lib/utils.ts</title>
<path fill="none" stroke="#cfffac" d="M213.96,-947.75C213.96,-947.75 60.79,-947.75 60.79,-947.75 56.83,-947.75 52.88,-943.79 52.88,-939.83 52.88,-939.83 52.88,-931.92 52.88,-931.92 52.88,-927.96 56.83,-924 60.79,-924 60.79,-924 213.96,-924 213.96,-924 217.92,-924 221.88,-927.96 221.88,-931.92 221.88,-931.92 221.88,-939.83 221.88,-939.83 221.88,-943.79 217.92,-947.75 213.96,-947.75"/>
<text text-anchor="middle" x="137.38" y="-930.45" font-family="Arial" font-size="14.00" fill="#cfffac">packages/ui/src/lib/utils.ts</text>
</g>
<!-- packages/ui/src/styles/globals.css -->
<g id="node28" class="node">
<title>packages/ui/src/styles/globals.css</title>
<path fill="none" stroke="#cfffac" d="M238.71,-989.75C238.71,-989.75 36.04,-989.75 36.04,-989.75 32.08,-989.75 28.12,-985.79 28.12,-981.83 28.12,-981.83 28.12,-973.92 28.12,-973.92 28.12,-969.96 32.08,-966 36.04,-966 36.04,-966 238.71,-966 238.71,-966 242.67,-966 246.62,-969.96 246.62,-973.92 246.62,-973.92 246.62,-981.83 246.62,-981.83 246.62,-985.79 242.67,-989.75 238.71,-989.75"/>
<text text-anchor="middle" x="137.38" y="-972.45" font-family="Arial" font-size="14.00" fill="#cfffac">packages/ui/src/styles/globals.css</text>
</g>
<!-- scripts/clean&#45;install.ts -->
<g id="node29" class="node">
<title>scripts/clean&#45;install.ts</title>
<path fill="none" stroke="#cfffac" d="M201.58,-1031.75C201.58,-1031.75 73.17,-1031.75 73.17,-1031.75 69.21,-1031.75 65.25,-1027.79 65.25,-1023.83 65.25,-1023.83 65.25,-1015.92 65.25,-1015.92 65.25,-1011.96 69.21,-1008 73.17,-1008 73.17,-1008 201.58,-1008 201.58,-1008 205.54,-1008 209.5,-1011.96 209.5,-1015.92 209.5,-1015.92 209.5,-1023.83 209.5,-1023.83 209.5,-1027.79 205.54,-1031.75 201.58,-1031.75"/>
<text text-anchor="middle" x="137.38" y="-1014.45" font-family="Arial" font-size="14.00" fill="#cfffac">scripts/clean&#45;install.ts</text>
</g>
<!-- scripts/generate/index&#45;files.ts -->
<g id="node30" class="node">
<title>scripts/generate/index&#45;files.ts</title>
<path fill="none" stroke="#cfffac" d="M224.83,-1073.75C224.83,-1073.75 49.92,-1073.75 49.92,-1073.75 45.96,-1073.75 42,-1069.79 42,-1065.83 42,-1065.83 42,-1057.92 42,-1057.92 42,-1053.96 45.96,-1050 49.92,-1050 49.92,-1050 224.83,-1050 224.83,-1050 228.79,-1050 232.75,-1053.96 232.75,-1057.92 232.75,-1057.92 232.75,-1065.83 232.75,-1065.83 232.75,-1069.79 228.79,-1073.75 224.83,-1073.75"/>
<text text-anchor="middle" x="137.38" y="-1056.45" font-family="Arial" font-size="14.00" fill="#cfffac">scripts/generate/index&#45;files.ts</text>
</g>
</g>
</svg>
