<?xml version="1.0" encoding="UTF-8" standalone="no"?>
<!DOCTYPE svg PUBLIC "-//W3C//DTD SVG 1.1//EN"
 "http://www.w3.org/Graphics/SVG/1.1/DTD/svg11.dtd">
<!-- Generated by graphviz version 13.1.2 (20250808.2320)
 -->
<!-- Title: G Pages: 1 -->
<svg width="637pt" height="907pt"
 viewBox="0.00 0.00 637.00 907.00" xmlns="http://www.w3.org/2000/svg" xmlns:xlink="http://www.w3.org/1999/xlink">
<g id="graph0" class="graph" transform="scale(1 1) rotate(0) translate(21.6 885.35)">
<title>G</title>
<polygon fill="#111111" stroke="none" points="-21.6,21.6 -21.6,-885.35 615.35,-885.35 615.35,21.6 -21.6,21.6"/>
<!-- apps/web/src/app/example&#45;article/page.tsx -->
<g id="node1" class="node">
<title>apps/web/src/app/example&#45;article/page.tsx</title>
<path fill="none" stroke="#cfffac" d="M271.33,-23.75C271.33,-23.75 14.67,-23.75 14.67,-23.75 10.71,-23.75 6.75,-19.79 6.75,-15.83 6.75,-15.83 6.75,-7.92 6.75,-7.92 6.75,-3.96 10.71,0 14.67,0 14.67,0 271.33,0 271.33,0 275.29,0 279.25,-3.96 279.25,-7.92 279.25,-7.92 279.25,-15.83 279.25,-15.83 279.25,-19.79 275.29,-23.75 271.33,-23.75"/>
<text xml:space="preserve" text-anchor="middle" x="143" y="-6.45" font-family="Arial" font-size="14.00" fill="#cfffac">apps/web/src/app/example&#45;article/page.tsx</text>
</g>
<!-- apps/web/src/app/opengraph&#45;image.tsx -->
<g id="node2" class="node">
<title>apps/web/src/app/opengraph&#45;image.tsx</title>
<path fill="none" stroke="#cfffac" d="M261.58,-65.75C261.58,-65.75 24.42,-65.75 24.42,-65.75 20.46,-65.75 16.5,-61.79 16.5,-57.83 16.5,-57.83 16.5,-49.92 16.5,-49.92 16.5,-45.96 20.46,-42 24.42,-42 24.42,-42 261.58,-42 261.58,-42 265.54,-42 269.5,-45.96 269.5,-49.92 269.5,-49.92 269.5,-57.83 269.5,-57.83 269.5,-61.79 265.54,-65.75 261.58,-65.75"/>
<text xml:space="preserve" text-anchor="middle" x="143" y="-48.45" font-family="Arial" font-size="14.00" fill="#cfffac">apps/web/src/app/opengraph&#45;image.tsx</text>
</g>
<!-- apps/web/src/app/page.tsx -->
<g id="node3" class="node">
<title>apps/web/src/app/page.tsx</title>
<path fill="none" stroke="#cfffac" d="M223.33,-107.75C223.33,-107.75 62.67,-107.75 62.67,-107.75 58.71,-107.75 54.75,-103.79 54.75,-99.83 54.75,-99.83 54.75,-91.92 54.75,-91.92 54.75,-87.96 58.71,-84 62.67,-84 62.67,-84 223.33,-84 223.33,-84 227.29,-84 231.25,-87.96 231.25,-91.92 231.25,-91.92 231.25,-99.83 231.25,-99.83 231.25,-103.79 227.29,-107.75 223.33,-107.75"/>
<text xml:space="preserve" text-anchor="middle" x="143" y="-90.45" font-family="Arial" font-size="14.00" fill="#cfffac">apps/web/src/app/page.tsx</text>
</g>
<!-- apps/web/src/components/button&#45;link.tsx -->
<g id="node4" class="node">
<title>apps/web/src/components/button&#45;link.tsx</title>
<path fill="none" stroke="#cfffac" d="M265.33,-149.75C265.33,-149.75 20.67,-149.75 20.67,-149.75 16.71,-149.75 12.75,-145.79 12.75,-141.83 12.75,-141.83 12.75,-133.92 12.75,-133.92 12.75,-129.96 16.71,-126 20.67,-126 20.67,-126 265.33,-126 265.33,-126 269.29,-126 273.25,-129.96 273.25,-133.92 273.25,-133.92 273.25,-141.83 273.25,-141.83 273.25,-145.79 269.29,-149.75 265.33,-149.75"/>
<text xml:space="preserve" text-anchor="middle" x="143" y="-132.45" font-family="Arial" font-size="14.00" fill="#cfffac">apps/web/src/components/button&#45;link.tsx</text>
</g>
<!-- apps/web/src/components/copyable&#45;code.tsx -->
<g id="node5" class="node">
<title>apps/web/src/components/copyable&#45;code.tsx</title>
<path fill="none" stroke="#cfffac" d="M278.08,-191.75C278.08,-191.75 7.92,-191.75 7.92,-191.75 3.96,-191.75 0,-187.79 0,-183.83 0,-183.83 0,-175.92 0,-175.92 0,-171.96 3.96,-168 7.92,-168 7.92,-168 278.08,-168 278.08,-168 282.04,-168 286,-171.96 286,-175.92 286,-175.92 286,-183.83 286,-183.83 286,-187.79 282.04,-191.75 278.08,-191.75"/>
<text xml:space="preserve" text-anchor="middle" x="143" y="-174.45" font-family="Arial" font-size="14.00" fill="#cfffac">apps/web/src/components/copyable&#45;code.tsx</text>
</g>
<!-- apps/web/src/components/json&#45;ld&#45;script.tsx -->
<g id="node6" class="node">
<title>apps/web/src/components/json&#45;ld&#45;script.tsx</title>
<path fill="none" stroke="#cfffac" d="M272.46,-233.75C272.46,-233.75 13.54,-233.75 13.54,-233.75 9.58,-233.75 5.62,-229.79 5.62,-225.83 5.62,-225.83 5.62,-217.92 5.62,-217.92 5.62,-213.96 9.58,-210 13.54,-210 13.54,-210 272.46,-210 272.46,-210 276.42,-210 280.38,-213.96 280.38,-217.92 280.38,-217.92 280.38,-225.83 280.38,-225.83 280.38,-229.79 276.42,-233.75 272.46,-233.75"/>
<text xml:space="preserve" text-anchor="middle" x="143" y="-216.45" font-family="Arial" font-size="14.00" fill="#cfffac">apps/web/src/components/json&#45;ld&#45;script.tsx</text>
</g>
<!-- apps/web/src/components/providers.tsx -->
<g id="node7" class="node">
<title>apps/web/src/components/providers.tsx</title>
<path fill="none" stroke="#cfffac" d="M261.96,-275.75C261.96,-275.75 24.04,-275.75 24.04,-275.75 20.08,-275.75 16.12,-271.79 16.12,-267.83 16.12,-267.83 16.12,-259.92 16.12,-259.92 16.12,-255.96 20.08,-252 24.04,-252 24.04,-252 261.96,-252 261.96,-252 265.92,-252 269.88,-255.96 269.88,-259.92 269.88,-259.92 269.88,-267.83 269.88,-267.83 269.88,-271.79 265.92,-275.75 261.96,-275.75"/>
<text xml:space="preserve" text-anchor="middle" x="143" y="-258.45" font-family="Arial" font-size="14.00" fill="#cfffac">apps/web/src/components/providers.tsx</text>
</g>
<!-- apps/web/src/components/scroll&#45;reveal.tsx -->
<g id="node8" class="node">
<title>apps/web/src/components/scroll&#45;reveal.tsx</title>
<path fill="none" stroke="#cfffac" d="M270.58,-317.75C270.58,-317.75 15.42,-317.75 15.42,-317.75 11.46,-317.75 7.5,-313.79 7.5,-309.83 7.5,-309.83 7.5,-301.92 7.5,-301.92 7.5,-297.96 11.46,-294 15.42,-294 15.42,-294 270.58,-294 270.58,-294 274.54,-294 278.5,-297.96 278.5,-301.92 278.5,-301.92 278.5,-309.83 278.5,-309.83 278.5,-313.79 274.54,-317.75 270.58,-317.75"/>
<text xml:space="preserve" text-anchor="middle" x="143" y="-300.45" font-family="Arial" font-size="14.00" fill="#cfffac">apps/web/src/components/scroll&#45;reveal.tsx</text>
</g>
<!-- apps/web/src/components/theme&#45;toggle.tsx -->
<g id="node9" class="node">
<title>apps/web/src/components/theme&#45;toggle.tsx</title>
<path fill="none" stroke="#cfffac" d="M273.96,-359.75C273.96,-359.75 12.04,-359.75 12.04,-359.75 8.08,-359.75 4.12,-355.79 4.12,-351.83 4.12,-351.83 4.12,-343.92 4.12,-343.92 4.12,-339.96 8.08,-336 12.04,-336 12.04,-336 273.96,-336 273.96,-336 277.92,-336 281.88,-339.96 281.88,-343.92 281.88,-343.92 281.88,-351.83 281.88,-351.83 281.88,-355.79 277.92,-359.75 273.96,-359.75"/>
<text xml:space="preserve" text-anchor="middle" x="143" y="-342.45" font-family="Arial" font-size="14.00" fill="#cfffac">apps/web/src/components/theme&#45;toggle.tsx</text>
</g>
<!-- apps/web/src/const/landing&#45;data.ts -->
<g id="node10" class="node">
<title>apps/web/src/const/landing&#45;data.ts</title>
<path fill="none" stroke="#cfffac" d="M246.96,-401.75C246.96,-401.75 39.04,-401.75 39.04,-401.75 35.08,-401.75 31.13,-397.79 31.13,-393.83 31.13,-393.83 31.13,-385.92 31.13,-385.92 31.13,-381.96 35.08,-378 39.04,-378 39.04,-378 246.96,-378 246.96,-378 250.92,-378 254.88,-381.96 254.88,-385.92 254.88,-385.92 254.88,-393.83 254.88,-393.83 254.88,-397.79 250.92,-401.75 246.96,-401.75"/>
<text xml:space="preserve" text-anchor="middle" x="143" y="-384.45" font-family="Arial" font-size="14.00" fill="#cfffac">apps/web/src/const/landing&#45;data.ts</text>
</g>
<!-- apps/web/src/const/sns.ts -->
<g id="node11" class="node">
<title>apps/web/src/const/sns.ts</title>
<path fill="none" stroke="#cfffac" d="M220.33,-443.75C220.33,-443.75 65.67,-443.75 65.67,-443.75 61.71,-443.75 57.75,-439.79 57.75,-435.83 57.75,-435.83 57.75,-427.92 57.75,-427.92 57.75,-423.96 61.71,-420 65.67,-420 65.67,-420 220.33,-420 220.33,-420 224.29,-420 228.25,-423.96 228.25,-427.92 228.25,-427.92 228.25,-435.83 228.25,-435.83 228.25,-439.79 224.29,-443.75 220.33,-443.75"/>
<text xml:space="preserve" text-anchor="middle" x="143" y="-426.45" font-family="Arial" font-size="14.00" fill="#cfffac">apps/web/src/const/sns.ts</text>
</g>
<!-- apps/web/src/lib/fonts/index.ts -->
<g id="node12" class="node">
<title>apps/web/src/lib/fonts/index.ts</title>
<path fill="none" stroke="#c6c5fe" d="M233.08,-485.75C233.08,-485.75 52.92,-485.75 52.92,-485.75 48.96,-485.75 45,-481.79 45,-477.83 45,-477.83 45,-469.92 45,-469.92 45,-465.96 48.96,-462 52.92,-462 52.92,-462 233.08,-462 233.08,-462 237.04,-462 241,-465.96 241,-469.92 241,-469.92 241,-477.83 241,-477.83 241,-481.79 237.04,-485.75 233.08,-485.75"/>
<text xml:space="preserve" text-anchor="middle" x="143" y="-468.45" font-family="Arial" font-size="14.00" fill="#c6c5fe">apps/web/src/lib/fonts/index.ts</text>
</g>
<!-- apps/web/src/lib/fonts/noto&#45;sans.ts -->
<g id="node13" class="node">
<title>apps/web/src/lib/fonts/noto&#45;sans.ts</title>
<path fill="none" stroke="#cfffac" d="M561.46,-506.75C561.46,-506.75 354.29,-506.75 354.29,-506.75 350.33,-506.75 346.38,-502.79 346.38,-498.83 346.38,-498.83 346.38,-490.92 346.38,-490.92 346.38,-486.96 350.33,-483 354.29,-483 354.29,-483 561.46,-483 561.46,-483 565.42,-483 569.38,-486.96 569.38,-490.92 569.38,-490.92 569.38,-498.83 569.38,-498.83 569.38,-502.79 565.42,-506.75 561.46,-506.75"/>
<text xml:space="preserve" text-anchor="middle" x="457.88" y="-489.45" font-family="Arial" font-size="14.00" fill="#cfffac">apps/web/src/lib/fonts/noto&#45;sans.ts</text>
</g>
<!-- apps/web/src/lib/fonts/index.ts&#45;&gt;apps/web/src/lib/fonts/noto&#45;sans.ts -->
<g id="edge1" class="edge">
<title>apps/web/src/lib/fonts/index.ts&#45;&gt;apps/web/src/lib/fonts/noto&#45;sans.ts</title>
<path fill="none" stroke="#757575" d="M241.28,-480.4C270.84,-482.39 303.7,-484.59 334.67,-486.67"/>
<polygon fill="#757575" stroke="#757575" points="334.27,-490.15 344.48,-487.33 334.74,-483.17 334.27,-490.15"/>
</g>
<!-- apps/web/src/lib/fonts/noto&#45;serif.ts -->
<g id="node14" class="node">
<title>apps/web/src/lib/fonts/noto&#45;serif.ts</title>
<path fill="none" stroke="#cfffac" d="M559.96,-464.75C559.96,-464.75 355.79,-464.75 355.79,-464.75 351.83,-464.75 347.88,-460.79 347.88,-456.83 347.88,-456.83 347.88,-448.92 347.88,-448.92 347.88,-444.96 351.83,-441 355.79,-441 355.79,-441 559.96,-441 559.96,-441 563.92,-441 567.88,-444.96 567.88,-448.92 567.88,-448.92 567.88,-456.83 567.88,-456.83 567.88,-460.79 563.92,-464.75 559.96,-464.75"/>
<text xml:space="preserve" text-anchor="middle" x="457.88" y="-447.45" font-family="Arial" font-size="14.00" fill="#cfffac">apps/web/src/lib/fonts/noto&#45;serif.ts</text>
</g>
<!-- apps/web/src/lib/fonts/index.ts&#45;&gt;apps/web/src/lib/fonts/noto&#45;serif.ts -->
<g id="edge2" class="edge">
<title>apps/web/src/lib/fonts/index.ts&#45;&gt;apps/web/src/lib/fonts/noto&#45;serif.ts</title>
<path fill="none" stroke="#757575" d="M241.28,-467.35C271.24,-465.33 304.59,-463.1 335.93,-460.99"/>
<polygon fill="#757575" stroke="#757575" points="336.12,-464.49 345.87,-460.33 335.65,-457.5 336.12,-464.49"/>
</g>
<!-- apps/web/src/lib/json&#45;ld/breadcrumb&#45;list.ts -->
<g id="node15" class="node">
<title>apps/web/src/lib/json&#45;ld/breadcrumb&#45;list.ts</title>
<path fill="none" stroke="#cfffac" d="M583.96,-674.75C583.96,-674.75 331.79,-674.75 331.79,-674.75 327.83,-674.75 323.88,-670.79 323.88,-666.83 323.88,-666.83 323.88,-658.92 323.88,-658.92 323.88,-654.96 327.83,-651 331.79,-651 331.79,-651 583.96,-651 583.96,-651 587.92,-651 591.88,-654.96 591.88,-658.92 591.88,-658.92 591.88,-666.83 591.88,-666.83 591.88,-670.79 587.92,-674.75 583.96,-674.75"/>
<text xml:space="preserve" text-anchor="middle" x="457.88" y="-657.45" font-family="Arial" font-size="14.00" fill="#cfffac">apps/web/src/lib/json&#45;ld/breadcrumb&#45;list.ts</text>
</g>
<!-- apps/web/src/lib/json&#45;ld/generate&#45;json&#45;ld.ts -->
<g id="node16" class="node">
<title>apps/web/src/lib/json&#45;ld/generate&#45;json&#45;ld.ts</title>
<path fill="none" stroke="#cfffac" d="M585.83,-632.75C585.83,-632.75 329.92,-632.75 329.92,-632.75 325.96,-632.75 322,-628.79 322,-624.83 322,-624.83 322,-616.92 322,-616.92 322,-612.96 325.96,-609 329.92,-609 329.92,-609 585.83,-609 585.83,-609 589.79,-609 593.75,-612.96 593.75,-616.92 593.75,-616.92 593.75,-624.83 593.75,-624.83 593.75,-628.79 589.79,-632.75 585.83,-632.75"/>
<text xml:space="preserve" text-anchor="middle" x="457.88" y="-615.45" font-family="Arial" font-size="14.00" fill="#cfffac">apps/web/src/lib/json&#45;ld/generate&#45;json&#45;ld.ts</text>
</g>
<!-- apps/web/src/lib/json&#45;ld/index.ts -->
<g id="node17" class="node">
<title>apps/web/src/lib/json&#45;ld/index.ts</title>
<path fill="none" stroke="#c6c5fe" d="M238.33,-611.75C238.33,-611.75 47.67,-611.75 47.67,-611.75 43.71,-611.75 39.75,-607.79 39.75,-603.83 39.75,-603.83 39.75,-595.92 39.75,-595.92 39.75,-591.96 43.71,-588 47.67,-588 47.67,-588 238.33,-588 238.33,-588 242.29,-588 246.25,-591.96 246.25,-595.92 246.25,-595.92 246.25,-603.83 246.25,-603.83 246.25,-607.79 242.29,-611.75 238.33,-611.75"/>
<text xml:space="preserve" text-anchor="middle" x="143" y="-594.45" font-family="Arial" font-size="14.00" fill="#c6c5fe">apps/web/src/lib/json&#45;ld/index.ts</text>
</g>
<!-- apps/web/src/lib/json&#45;ld/index.ts&#45;&gt;apps/web/src/lib/json&#45;ld/breadcrumb&#45;list.ts -->
<g id="edge3" class="edge">
<title>apps/web/src/lib/json&#45;ld/index.ts&#45;&gt;apps/web/src/lib/json&#45;ld/breadcrumb&#45;list.ts</title>
<path fill="none" stroke="#757575" d="M246.37,-610.22C259.9,-612.97 273.42,-616.46 286,-620.88 303.48,-627.01 304.54,-635.68 322,-641.88 328.15,-644.06 334.54,-646.02 341.05,-647.77"/>
<polygon fill="#757575" stroke="#757575" points="340.06,-651.13 350.61,-650.17 341.76,-644.34 340.06,-651.13"/>
</g>
<!-- apps/web/src/lib/json&#45;ld/index.ts&#45;&gt;apps/web/src/lib/json&#45;ld/generate&#45;json&#45;ld.ts -->
<g id="edge4" class="edge">
<title>apps/web/src/lib/json&#45;ld/index.ts&#45;&gt;apps/web/src/lib/json&#45;ld/generate&#45;json&#45;ld.ts</title>
<path fill="none" stroke="#757575" d="M246.45,-606.75C266.94,-608.13 288.83,-609.6 310.47,-611.05"/>
<polygon fill="#757575" stroke="#757575" points="310.03,-614.53 320.24,-611.7 310.5,-607.54 310.03,-614.53"/>
</g>
<!-- apps/web/src/lib/json&#45;ld/local&#45;business.ts -->
<g id="node18" class="node">
<title>apps/web/src/lib/json&#45;ld/local&#45;business.ts</title>
<path fill="none" stroke="#cfffac" d="M579.83,-590.75C579.83,-590.75 335.92,-590.75 335.92,-590.75 331.96,-590.75 328,-586.79 328,-582.83 328,-582.83 328,-574.92 328,-574.92 328,-570.96 331.96,-567 335.92,-567 335.92,-567 579.83,-567 579.83,-567 583.79,-567 587.75,-570.96 587.75,-574.92 587.75,-574.92 587.75,-582.83 587.75,-582.83 587.75,-586.79 583.79,-590.75 579.83,-590.75"/>
<text xml:space="preserve" text-anchor="middle" x="457.88" y="-573.45" font-family="Arial" font-size="14.00" fill="#cfffac">apps/web/src/lib/json&#45;ld/local&#45;business.ts</text>
</g>
<!-- apps/web/src/lib/json&#45;ld/index.ts&#45;&gt;apps/web/src/lib/json&#45;ld/local&#45;business.ts -->
<g id="edge5" class="edge">
<title>apps/web/src/lib/json&#45;ld/index.ts&#45;&gt;apps/web/src/lib/json&#45;ld/local&#45;business.ts</title>
<path fill="none" stroke="#757575" d="M246.45,-593C268.73,-591.5 292.68,-589.9 316.15,-588.32"/>
<polygon fill="#757575" stroke="#757575" points="316.38,-591.81 326.12,-587.65 315.91,-584.83 316.38,-591.81"/>
</g>
<!-- apps/web/src/lib/json&#45;ld/organization.ts -->
<g id="node19" class="node">
<title>apps/web/src/lib/json&#45;ld/organization.ts</title>
<path fill="none" stroke="#cfffac" d="M573.83,-548.75C573.83,-548.75 341.92,-548.75 341.92,-548.75 337.96,-548.75 334,-544.79 334,-540.83 334,-540.83 334,-532.92 334,-532.92 334,-528.96 337.96,-525 341.92,-525 341.92,-525 573.83,-525 573.83,-525 577.79,-525 581.75,-528.96 581.75,-532.92 581.75,-532.92 581.75,-540.83 581.75,-540.83 581.75,-544.79 577.79,-548.75 573.83,-548.75"/>
<text xml:space="preserve" text-anchor="middle" x="457.88" y="-531.45" font-family="Arial" font-size="14.00" fill="#cfffac">apps/web/src/lib/json&#45;ld/organization.ts</text>
</g>
<!-- apps/web/src/lib/json&#45;ld/index.ts&#45;&gt;apps/web/src/lib/json&#45;ld/organization.ts -->
<g id="edge6" class="edge">
<title>apps/web/src/lib/json&#45;ld/index.ts&#45;&gt;apps/web/src/lib/json&#45;ld/organization.ts</title>
<path fill="none" stroke="#757575" d="M191.76,-587.55C227.47,-578.59 277.6,-566.56 322,-557.88 334.23,-555.48 347.13,-553.19 359.91,-551.05"/>
<polygon fill="#757575" stroke="#757575" points="360.29,-554.53 369.59,-549.46 359.15,-547.63 360.29,-554.53"/>
</g>
<!-- apps/web/src/lib/metadata.ts -->
<g id="node20" class="node">
<title>apps/web/src/lib/metadata.ts</title>
<path fill="none" stroke="#cfffac" d="M228.96,-653.75C228.96,-653.75 57.04,-653.75 57.04,-653.75 53.08,-653.75 49.12,-649.79 49.12,-645.83 49.12,-645.83 49.12,-637.92 49.12,-637.92 49.12,-633.96 53.08,-630 57.04,-630 57.04,-630 228.96,-630 228.96,-630 232.92,-630 236.88,-633.96 236.88,-637.92 236.88,-637.92 236.88,-645.83 236.88,-645.83 236.88,-649.79 232.92,-653.75 228.96,-653.75"/>
<text xml:space="preserve" text-anchor="middle" x="143" y="-636.45" font-family="Arial" font-size="14.00" fill="#cfffac">apps/web/src/lib/metadata.ts</text>
</g>
<!-- packages/e2e&#45;web/tests/page.e2e&#45;spec.ts -->
<g id="node21" class="node">
<title>packages/e2e&#45;web/tests/page.e2e&#45;spec.ts</title>
<path fill="none" stroke="#cfffac" d="M269.46,-695.75C269.46,-695.75 16.54,-695.75 16.54,-695.75 12.58,-695.75 8.62,-691.79 8.62,-687.83 8.62,-687.83 8.62,-679.92 8.62,-679.92 8.62,-675.96 12.58,-672 16.54,-672 16.54,-672 269.46,-672 269.46,-672 273.42,-672 277.38,-675.96 277.38,-679.92 277.38,-679.92 277.38,-687.83 277.38,-687.83 277.38,-691.79 273.42,-695.75 269.46,-695.75"/>
<text xml:space="preserve" text-anchor="middle" x="143" y="-678.45" font-family="Arial" font-size="14.00" fill="#cfffac">packages/e2e&#45;web/tests/page.e2e&#45;spec.ts</text>
</g>
<!-- packages/ui/src/components/badge.tsx -->
<g id="node22" class="node">
<title>packages/ui/src/components/badge.tsx</title>
<path fill="none" stroke="#cfffac" d="M260.08,-737.75C260.08,-737.75 25.92,-737.75 25.92,-737.75 21.96,-737.75 18,-733.79 18,-729.83 18,-729.83 18,-721.92 18,-721.92 18,-717.96 21.96,-714 25.92,-714 25.92,-714 260.08,-714 260.08,-714 264.04,-714 268,-717.96 268,-721.92 268,-721.92 268,-729.83 268,-729.83 268,-733.79 264.04,-737.75 260.08,-737.75"/>
<text xml:space="preserve" text-anchor="middle" x="143" y="-720.45" font-family="Arial" font-size="14.00" fill="#cfffac">packages/ui/src/components/badge.tsx</text>
</g>
<!-- packages/ui/src/components/button.tsx -->
<g id="node23" class="node">
<title>packages/ui/src/components/button.tsx</title>
<path fill="none" stroke="#cfffac" d="M260.08,-779.75C260.08,-779.75 25.92,-779.75 25.92,-779.75 21.96,-779.75 18,-775.79 18,-771.83 18,-771.83 18,-763.92 18,-763.92 18,-759.96 21.96,-756 25.92,-756 25.92,-756 260.08,-756 260.08,-756 264.04,-756 268,-759.96 268,-763.92 268,-763.92 268,-771.83 268,-771.83 268,-775.79 264.04,-779.75 260.08,-779.75"/>
<text xml:space="preserve" text-anchor="middle" x="143" y="-762.45" font-family="Arial" font-size="14.00" fill="#cfffac">packages/ui/src/components/button.tsx</text>
</g>
<!-- packages/ui/src/components/card.tsx -->
<g id="node24" class="node">
<title>packages/ui/src/components/card.tsx</title>
<path fill="none" stroke="#cfffac" d="M254.46,-821.75C254.46,-821.75 31.54,-821.75 31.54,-821.75 27.58,-821.75 23.62,-817.79 23.62,-813.83 23.62,-813.83 23.62,-805.92 23.62,-805.92 23.62,-801.96 27.58,-798 31.54,-798 31.54,-798 254.46,-798 254.46,-798 258.42,-798 262.38,-801.96 262.38,-805.92 262.38,-805.92 262.38,-813.83 262.38,-813.83 262.38,-817.79 258.42,-821.75 254.46,-821.75"/>
<text xml:space="preserve" text-anchor="middle" x="143" y="-804.45" font-family="Arial" font-size="14.00" fill="#cfffac">packages/ui/src/components/card.tsx</text>
</g>
<!-- packages/ui/src/lib/utils.ts -->
<g id="node25" class="node">
<title>packages/ui/src/lib/utils.ts</title>
<path fill="none" stroke="#cfffac" d="M219.58,-863.75C219.58,-863.75 66.42,-863.75 66.42,-863.75 62.46,-863.75 58.5,-859.79 58.5,-855.83 58.5,-855.83 58.5,-847.92 58.5,-847.92 58.5,-843.96 62.46,-840 66.42,-840 66.42,-840 219.58,-840 219.58,-840 223.54,-840 227.5,-843.96 227.5,-847.92 227.5,-847.92 227.5,-855.83 227.5,-855.83 227.5,-859.79 223.54,-863.75 219.58,-863.75"/>
<text xml:space="preserve" text-anchor="middle" x="143" y="-846.45" font-family="Arial" font-size="14.00" fill="#cfffac">packages/ui/src/lib/utils.ts</text>
</g>
</g>
</svg>
