<?xml version="1.0" encoding="UTF-8" standalone="no"?>
<!DOCTYPE svg PUBLIC "-//W3C//DTD SVG 1.1//EN"
 "http://www.w3.org/Graphics/SVG/1.1/DTD/svg11.dtd">
<!-- Generated by graphviz version 12.2.1 (20241206.2353)
 -->
<!-- Title: G Pages: 1 -->
<svg width="601pt" height="508pt"
 viewBox="0.00 0.00 600.95 507.95" xmlns="http://www.w3.org/2000/svg" xmlns:xlink="http://www.w3.org/1999/xlink">
<g id="graph0" class="graph" transform="scale(1 1) rotate(0) translate(21.6 486.35)">
<title>G</title>
<polygon fill="#111111" stroke="none" points="-21.6,21.6 -21.6,-486.35 579.35,-486.35 579.35,21.6 -21.6,21.6"/>
<!-- apps/web/src/app/layout.tsx -->
<g id="node1" class="node">
<title>apps/web/src/app/layout.tsx</title>
<path fill="none" stroke="#cfffac" d="M210.21,-23.75C210.21,-23.75 43.54,-23.75 43.54,-23.75 39.58,-23.75 35.62,-19.79 35.62,-15.83 35.62,-15.83 35.62,-7.92 35.62,-7.92 35.62,-3.96 39.58,0 43.54,0 43.54,0 210.21,0 210.21,0 214.17,0 218.12,-3.96 218.12,-7.92 218.12,-7.92 218.12,-15.83 218.12,-15.83 218.12,-19.79 214.17,-23.75 210.21,-23.75"/>
<text text-anchor="middle" x="126.88" y="-6.45" font-family="Arial" font-size="14.00" fill="#cfffac">apps/web/src/app/layout.tsx</text>
</g>
<!-- apps/web/src/app/page.tsx -->
<g id="node2" class="node">
<title>apps/web/src/app/page.tsx</title>
<path fill="none" stroke="#cfffac" d="M207.21,-65.75C207.21,-65.75 46.54,-65.75 46.54,-65.75 42.58,-65.75 38.62,-61.79 38.62,-57.83 38.62,-57.83 38.62,-49.92 38.62,-49.92 38.62,-45.96 42.58,-42 46.54,-42 46.54,-42 207.21,-42 207.21,-42 211.17,-42 215.12,-45.96 215.12,-49.92 215.12,-49.92 215.12,-57.83 215.12,-57.83 215.12,-61.79 211.17,-65.75 207.21,-65.75"/>
<text text-anchor="middle" x="126.88" y="-48.45" font-family="Arial" font-size="14.00" fill="#cfffac">apps/web/src/app/page.tsx</text>
</g>
<!-- apps/web/src/components/providers.tsx -->
<g id="node3" class="node">
<title>apps/web/src/components/providers.tsx</title>
<path fill="none" stroke="#cfffac" d="M245.83,-107.75C245.83,-107.75 7.92,-107.75 7.92,-107.75 3.96,-107.75 0,-103.79 0,-99.83 0,-99.83 0,-91.92 0,-91.92 0,-87.96 3.96,-84 7.92,-84 7.92,-84 245.83,-84 245.83,-84 249.79,-84 253.75,-87.96 253.75,-91.92 253.75,-91.92 253.75,-99.83 253.75,-99.83 253.75,-103.79 249.79,-107.75 245.83,-107.75"/>
<text text-anchor="middle" x="126.88" y="-90.45" font-family="Arial" font-size="14.00" fill="#cfffac">apps/web/src/components/providers.tsx</text>
</g>
<!-- apps/web/src/const/sns.ts -->
<g id="node4" class="node">
<title>apps/web/src/const/sns.ts</title>
<path fill="none" stroke="#cfffac" d="M204.21,-149.75C204.21,-149.75 49.54,-149.75 49.54,-149.75 45.58,-149.75 41.62,-145.79 41.62,-141.83 41.62,-141.83 41.62,-133.92 41.62,-133.92 41.62,-129.96 45.58,-126 49.54,-126 49.54,-126 204.21,-126 204.21,-126 208.17,-126 212.12,-129.96 212.12,-133.92 212.12,-133.92 212.12,-141.83 212.12,-141.83 212.12,-145.79 208.17,-149.75 204.21,-149.75"/>
<text text-anchor="middle" x="126.88" y="-132.45" font-family="Arial" font-size="14.00" fill="#cfffac">apps/web/src/const/sns.ts</text>
</g>
<!-- apps/web/src/lib/fonts/index.ts -->
<g id="node5" class="node">
<title>apps/web/src/lib/fonts/index.ts</title>
<path fill="none" stroke="#c6c5fe" d="M216.96,-191.75C216.96,-191.75 36.79,-191.75 36.79,-191.75 32.83,-191.75 28.88,-187.79 28.88,-183.83 28.88,-183.83 28.88,-175.92 28.88,-175.92 28.88,-171.96 32.83,-168 36.79,-168 36.79,-168 216.96,-168 216.96,-168 220.92,-168 224.88,-171.96 224.88,-175.92 224.88,-175.92 224.88,-183.83 224.88,-183.83 224.88,-187.79 220.92,-191.75 216.96,-191.75"/>
<text text-anchor="middle" x="126.88" y="-174.45" font-family="Arial" font-size="14.00" fill="#c6c5fe">apps/web/src/lib/fonts/index.ts</text>
</g>
<!-- apps/web/src/lib/fonts/noto&#45;sans.ts -->
<g id="node6" class="node">
<title>apps/web/src/lib/fonts/noto&#45;sans.ts</title>
<path fill="none" stroke="#cfffac" d="M527.33,-212.75C527.33,-212.75 320.17,-212.75 320.17,-212.75 316.21,-212.75 312.25,-208.79 312.25,-204.83 312.25,-204.83 312.25,-196.92 312.25,-196.92 312.25,-192.96 316.21,-189 320.17,-189 320.17,-189 527.33,-189 527.33,-189 531.29,-189 535.25,-192.96 535.25,-196.92 535.25,-196.92 535.25,-204.83 535.25,-204.83 535.25,-208.79 531.29,-212.75 527.33,-212.75"/>
<text text-anchor="middle" x="423.75" y="-195.45" font-family="Arial" font-size="14.00" fill="#cfffac">apps/web/src/lib/fonts/noto&#45;sans.ts</text>
</g>
<!-- apps/web/src/lib/fonts/index.ts&#45;&gt;apps/web/src/lib/fonts/noto&#45;sans.ts -->
<g id="edge1" class="edge">
<title>apps/web/src/lib/fonts/index.ts&#45;&gt;apps/web/src/lib/fonts/noto&#45;sans.ts</title>
<path fill="none" stroke="#757575" d="M225.25,-186.81C249.32,-188.52 275.42,-190.38 300.51,-192.17"/>
<polygon fill="#757575" stroke="#757575" points="300.23,-195.66 310.45,-192.88 300.72,-188.68 300.23,-195.66"/>
</g>
<!-- apps/web/src/lib/fonts/noto&#45;serif.ts -->
<g id="node7" class="node">
<title>apps/web/src/lib/fonts/noto&#45;serif.ts</title>
<path fill="none" stroke="#cfffac" d="M525.83,-170.75C525.83,-170.75 321.67,-170.75 321.67,-170.75 317.71,-170.75 313.75,-166.79 313.75,-162.83 313.75,-162.83 313.75,-154.92 313.75,-154.92 313.75,-150.96 317.71,-147 321.67,-147 321.67,-147 525.83,-147 525.83,-147 529.79,-147 533.75,-150.96 533.75,-154.92 533.75,-154.92 533.75,-162.83 533.75,-162.83 533.75,-166.79 529.79,-170.75 525.83,-170.75"/>
<text text-anchor="middle" x="423.75" y="-153.45" font-family="Arial" font-size="14.00" fill="#cfffac">apps/web/src/lib/fonts/noto&#45;serif.ts</text>
</g>
<!-- apps/web/src/lib/fonts/index.ts&#45;&gt;apps/web/src/lib/fonts/noto&#45;serif.ts -->
<g id="edge2" class="edge">
<title>apps/web/src/lib/fonts/index.ts&#45;&gt;apps/web/src/lib/fonts/noto&#45;serif.ts</title>
<path fill="none" stroke="#757575" d="M225.25,-172.94C249.8,-171.19 276.45,-169.29 301.99,-167.47"/>
<polygon fill="#757575" stroke="#757575" points="302.01,-170.98 311.74,-166.78 301.52,-164 302.01,-170.98"/>
</g>
<!-- apps/web/src/lib/json&#45;ld/breadcrumb&#45;list.ts -->
<g id="node8" class="node">
<title>apps/web/src/lib/json&#45;ld/breadcrumb&#45;list.ts</title>
<path fill="none" stroke="#cfffac" d="M549.83,-338.75C549.83,-338.75 297.67,-338.75 297.67,-338.75 293.71,-338.75 289.75,-334.79 289.75,-330.83 289.75,-330.83 289.75,-322.92 289.75,-322.92 289.75,-318.96 293.71,-315 297.67,-315 297.67,-315 549.83,-315 549.83,-315 553.79,-315 557.75,-318.96 557.75,-322.92 557.75,-322.92 557.75,-330.83 557.75,-330.83 557.75,-334.79 553.79,-338.75 549.83,-338.75"/>
<text text-anchor="middle" x="423.75" y="-321.45" font-family="Arial" font-size="14.00" fill="#cfffac">apps/web/src/lib/json&#45;ld/breadcrumb&#45;list.ts</text>
</g>
<!-- apps/web/src/lib/json&#45;ld/index.ts -->
<g id="node9" class="node">
<title>apps/web/src/lib/json&#45;ld/index.ts</title>
<path fill="none" stroke="#c6c5fe" d="M222.21,-296.75C222.21,-296.75 31.54,-296.75 31.54,-296.75 27.58,-296.75 23.62,-292.79 23.62,-288.83 23.62,-288.83 23.62,-280.92 23.62,-280.92 23.62,-276.96 27.58,-273 31.54,-273 31.54,-273 222.21,-273 222.21,-273 226.17,-273 230.12,-276.96 230.12,-280.92 230.12,-280.92 230.12,-288.83 230.12,-288.83 230.12,-292.79 226.17,-296.75 222.21,-296.75"/>
<text text-anchor="middle" x="126.88" y="-279.45" font-family="Arial" font-size="14.00" fill="#c6c5fe">apps/web/src/lib/json&#45;ld/index.ts</text>
</g>
<!-- apps/web/src/lib/json&#45;ld/index.ts&#45;&gt;apps/web/src/lib/json&#45;ld/breadcrumb&#45;list.ts -->
<g id="edge3" class="edge">
<title>apps/web/src/lib/json&#45;ld/index.ts&#45;&gt;apps/web/src/lib/json&#45;ld/breadcrumb&#45;list.ts</title>
<path fill="none" stroke="#757575" d="M214.75,-297.25C249.24,-302.16 289.09,-307.84 324.61,-312.9"/>
<polygon fill="#757575" stroke="#757575" points="324.09,-316.36 334.49,-314.3 325.08,-309.43 324.09,-316.36"/>
</g>
<!-- apps/web/src/lib/json&#45;ld/local&#45;buisiness.ts -->
<g id="node10" class="node">
<title>apps/web/src/lib/json&#45;ld/local&#45;buisiness.ts</title>
<path fill="none" stroke="#cfffac" d="M547.21,-296.75C547.21,-296.75 300.29,-296.75 300.29,-296.75 296.33,-296.75 292.38,-292.79 292.38,-288.83 292.38,-288.83 292.38,-280.92 292.38,-280.92 292.38,-276.96 296.33,-273 300.29,-273 300.29,-273 547.21,-273 547.21,-273 551.17,-273 555.12,-276.96 555.12,-280.92 555.12,-280.92 555.12,-288.83 555.12,-288.83 555.12,-292.79 551.17,-296.75 547.21,-296.75"/>
<text text-anchor="middle" x="423.75" y="-279.45" font-family="Arial" font-size="14.00" fill="#cfffac">apps/web/src/lib/json&#45;ld/local&#45;buisiness.ts</text>
</g>
<!-- apps/web/src/lib/json&#45;ld/index.ts&#45;&gt;apps/web/src/lib/json&#45;ld/local&#45;buisiness.ts -->
<g id="edge4" class="edge">
<title>apps/web/src/lib/json&#45;ld/index.ts&#45;&gt;apps/web/src/lib/json&#45;ld/local&#45;buisiness.ts</title>
<path fill="none" stroke="#757575" d="M230.59,-284.88C246.89,-284.88 263.99,-284.88 280.98,-284.88"/>
<polygon fill="#757575" stroke="#757575" points="280.62,-288.38 290.62,-284.88 280.62,-281.38 280.62,-288.38"/>
</g>
<!-- apps/web/src/lib/json&#45;ld/organization.ts -->
<g id="node11" class="node">
<title>apps/web/src/lib/json&#45;ld/organization.ts</title>
<path fill="none" stroke="#cfffac" d="M539.71,-254.75C539.71,-254.75 307.79,-254.75 307.79,-254.75 303.83,-254.75 299.88,-250.79 299.88,-246.83 299.88,-246.83 299.88,-238.92 299.88,-238.92 299.88,-234.96 303.83,-231 307.79,-231 307.79,-231 539.71,-231 539.71,-231 543.67,-231 547.62,-234.96 547.62,-238.92 547.62,-238.92 547.62,-246.83 547.62,-246.83 547.62,-250.79 543.67,-254.75 539.71,-254.75"/>
<text text-anchor="middle" x="423.75" y="-237.45" font-family="Arial" font-size="14.00" fill="#cfffac">apps/web/src/lib/json&#45;ld/organization.ts</text>
</g>
<!-- apps/web/src/lib/json&#45;ld/index.ts&#45;&gt;apps/web/src/lib/json&#45;ld/organization.ts -->
<g id="edge5" class="edge">
<title>apps/web/src/lib/json&#45;ld/index.ts&#45;&gt;apps/web/src/lib/json&#45;ld/organization.ts</title>
<path fill="none" stroke="#757575" d="M214.75,-272.5C249.24,-267.59 289.09,-261.91 324.61,-256.85"/>
<polygon fill="#757575" stroke="#757575" points="325.08,-260.32 334.49,-255.45 324.09,-253.39 325.08,-260.32"/>
</g>
<!-- packages/ui/src/components/button.tsx -->
<g id="node12" class="node">
<title>packages/ui/src/components/button.tsx</title>
<path fill="none" stroke="#cfffac" d="M243.96,-338.75C243.96,-338.75 9.79,-338.75 9.79,-338.75 5.83,-338.75 1.88,-334.79 1.88,-330.83 1.88,-330.83 1.88,-322.92 1.88,-322.92 1.88,-318.96 5.83,-315 9.79,-315 9.79,-315 243.96,-315 243.96,-315 247.92,-315 251.88,-318.96 251.88,-322.92 251.88,-322.92 251.88,-330.83 251.88,-330.83 251.88,-334.79 247.92,-338.75 243.96,-338.75"/>
<text text-anchor="middle" x="126.88" y="-321.45" font-family="Arial" font-size="14.00" fill="#cfffac">packages/ui/src/components/button.tsx</text>
</g>
<!-- packages/ui/src/lib/utils.ts -->
<g id="node13" class="node">
<title>packages/ui/src/lib/utils.ts</title>
<path fill="none" stroke="#cfffac" d="M203.46,-380.75C203.46,-380.75 50.29,-380.75 50.29,-380.75 46.33,-380.75 42.38,-376.79 42.38,-372.83 42.38,-372.83 42.38,-364.92 42.38,-364.92 42.38,-360.96 46.33,-357 50.29,-357 50.29,-357 203.46,-357 203.46,-357 207.42,-357 211.38,-360.96 211.38,-364.92 211.38,-364.92 211.38,-372.83 211.38,-372.83 211.38,-376.79 207.42,-380.75 203.46,-380.75"/>
<text text-anchor="middle" x="126.88" y="-363.45" font-family="Arial" font-size="14.00" fill="#cfffac">packages/ui/src/lib/utils.ts</text>
</g>
<!-- packages/ui/src/styles/globals.css -->
<g id="node14" class="node">
<title>packages/ui/src/styles/globals.css</title>
<path fill="none" stroke="#cfffac" d="M228.21,-422.75C228.21,-422.75 25.54,-422.75 25.54,-422.75 21.58,-422.75 17.62,-418.79 17.62,-414.83 17.62,-414.83 17.62,-406.92 17.62,-406.92 17.62,-402.96 21.58,-399 25.54,-399 25.54,-399 228.21,-399 228.21,-399 232.17,-399 236.12,-402.96 236.12,-406.92 236.12,-406.92 236.12,-414.83 236.12,-414.83 236.12,-418.79 232.17,-422.75 228.21,-422.75"/>
<text text-anchor="middle" x="126.88" y="-405.45" font-family="Arial" font-size="14.00" fill="#cfffac">packages/ui/src/styles/globals.css</text>
</g>
<!-- scripts/generate&#45;index.ts -->
<g id="node15" class="node">
<title>scripts/generate&#45;index.ts</title>
<path fill="none" stroke="#cfffac" d="M200.46,-464.75C200.46,-464.75 53.29,-464.75 53.29,-464.75 49.33,-464.75 45.38,-460.79 45.38,-456.83 45.38,-456.83 45.38,-448.92 45.38,-448.92 45.38,-444.96 49.33,-441 53.29,-441 53.29,-441 200.46,-441 200.46,-441 204.42,-441 208.38,-444.96 208.38,-448.92 208.38,-448.92 208.38,-456.83 208.38,-456.83 208.38,-460.79 204.42,-464.75 200.46,-464.75"/>
<text text-anchor="middle" x="126.88" y="-447.45" font-family="Arial" font-size="14.00" fill="#cfffac">scripts/generate&#45;index.ts</text>
</g>
</g>
</svg>
