<?xml version="1.0" encoding="UTF-8" standalone="no"?>
<!DOCTYPE svg PUBLIC "-//W3C//DTD SVG 1.1//EN"
 "http://www.w3.org/Graphics/SVG/1.1/DTD/svg11.dtd">
<!-- Generated by graphviz version 13.1.2 (20250808.2320)
 -->
<!-- Title: G Pages: 1 -->
<svg width="626pt" height="1537pt"
 viewBox="0.00 0.00 626.00 1537.00" xmlns="http://www.w3.org/2000/svg" xmlns:xlink="http://www.w3.org/1999/xlink">
<g id="graph0" class="graph" transform="scale(1 1) rotate(0) translate(21.6 1515.35)">
<title>G</title>
<polygon fill="#111111" stroke="none" points="-21.6,21.6 -21.6,-1515.35 604.1,-1515.35 604.1,21.6 -21.6,21.6"/>
<!-- .claude/common&#45;patterns.md -->
<g id="node1" class="node">
<title>.claude/common&#45;patterns.md</title>
<path fill="none" stroke="#cfffac" d="M225.96,-23.75C225.96,-23.75 48.79,-23.75 48.79,-23.75 44.83,-23.75 40.88,-19.79 40.88,-15.83 40.88,-15.83 40.88,-7.92 40.88,-7.92 40.88,-3.96 44.83,0 48.79,0 48.79,0 225.96,0 225.96,0 229.92,0 233.88,-3.96 233.88,-7.92 233.88,-7.92 233.88,-15.83 233.88,-15.83 233.88,-19.79 229.92,-23.75 225.96,-23.75"/>
<text xml:space="preserve" text-anchor="middle" x="137.38" y="-6.45" font-family="Arial" font-size="14.00" fill="#cfffac">.claude/common&#45;patterns.md</text>
</g>
<!-- .claude/context.md -->
<g id="node2" class="node">
<title>.claude/context.md</title>
<path fill="none" stroke="#cfffac" d="M194.46,-65.75C194.46,-65.75 80.29,-65.75 80.29,-65.75 76.33,-65.75 72.38,-61.79 72.38,-57.83 72.38,-57.83 72.38,-49.92 72.38,-49.92 72.38,-45.96 76.33,-42 80.29,-42 80.29,-42 194.46,-42 194.46,-42 198.42,-42 202.38,-45.96 202.38,-49.92 202.38,-49.92 202.38,-57.83 202.38,-57.83 202.38,-61.79 198.42,-65.75 194.46,-65.75"/>
<text xml:space="preserve" text-anchor="middle" x="137.38" y="-48.45" font-family="Arial" font-size="14.00" fill="#cfffac">.claude/context.md</text>
</g>
<!-- .claude/debug&#45;log.md -->
<g id="node3" class="node">
<title>.claude/debug&#45;log.md</title>
<path fill="none" stroke="#cfffac" d="M202.71,-107.75C202.71,-107.75 72.04,-107.75 72.04,-107.75 68.08,-107.75 64.12,-103.79 64.12,-99.83 64.12,-99.83 64.12,-91.92 64.12,-91.92 64.12,-87.96 68.08,-84 72.04,-84 72.04,-84 202.71,-84 202.71,-84 206.67,-84 210.62,-87.96 210.62,-91.92 210.62,-91.92 210.62,-99.83 210.62,-99.83 210.62,-103.79 206.67,-107.75 202.71,-107.75"/>
<text xml:space="preserve" text-anchor="middle" x="137.38" y="-90.45" font-family="Arial" font-size="14.00" fill="#cfffac">.claude/debug&#45;log.md</text>
</g>
<!-- .claude/project&#45;improvements.md -->
<g id="node4" class="node">
<title>.claude/project&#45;improvements.md</title>
<path fill="none" stroke="#cfffac" d="M238.33,-149.75C238.33,-149.75 36.42,-149.75 36.42,-149.75 32.46,-149.75 28.5,-145.79 28.5,-141.83 28.5,-141.83 28.5,-133.92 28.5,-133.92 28.5,-129.96 32.46,-126 36.42,-126 36.42,-126 238.33,-126 238.33,-126 242.29,-126 246.25,-129.96 246.25,-133.92 246.25,-133.92 246.25,-141.83 246.25,-141.83 246.25,-145.79 242.29,-149.75 238.33,-149.75"/>
<text xml:space="preserve" text-anchor="middle" x="137.38" y="-132.45" font-family="Arial" font-size="14.00" fill="#cfffac">.claude/project&#45;improvements.md</text>
</g>
<!-- .claude/project&#45;knowledge.md -->
<g id="node5" class="node">
<title>.claude/project&#45;knowledge.md</title>
<path fill="none" stroke="#cfffac" d="M227.46,-191.75C227.46,-191.75 47.29,-191.75 47.29,-191.75 43.33,-191.75 39.38,-187.79 39.38,-183.83 39.38,-183.83 39.38,-175.92 39.38,-175.92 39.38,-171.96 43.33,-168 47.29,-168 47.29,-168 227.46,-168 227.46,-168 231.42,-168 235.38,-171.96 235.38,-175.92 235.38,-175.92 235.38,-183.83 235.38,-183.83 235.38,-187.79 231.42,-191.75 227.46,-191.75"/>
<text xml:space="preserve" text-anchor="middle" x="137.38" y="-174.45" font-family="Arial" font-size="14.00" fill="#cfffac">.claude/project&#45;knowledge.md</text>
</g>
<!-- .roo/rules/dev_workflow.md -->
<g id="node6" class="node">
<title>.roo/rules/dev_workflow.md</title>
<path fill="none" stroke="#cfffac" d="M219.58,-233.75C219.58,-233.75 55.17,-233.75 55.17,-233.75 51.21,-233.75 47.25,-229.79 47.25,-225.83 47.25,-225.83 47.25,-217.92 47.25,-217.92 47.25,-213.96 51.21,-210 55.17,-210 55.17,-210 219.58,-210 219.58,-210 223.54,-210 227.5,-213.96 227.5,-217.92 227.5,-217.92 227.5,-225.83 227.5,-225.83 227.5,-229.79 223.54,-233.75 219.58,-233.75"/>
<text xml:space="preserve" text-anchor="middle" x="137.38" y="-216.45" font-family="Arial" font-size="14.00" fill="#cfffac">.roo/rules/dev_workflow.md</text>
</g>
<!-- .roo/rules/init.md -->
<g id="node7" class="node">
<title>.roo/rules/init.md</title>
<path fill="none" stroke="#cfffac" d="M187.71,-275.75C187.71,-275.75 87.04,-275.75 87.04,-275.75 83.08,-275.75 79.12,-271.79 79.12,-267.83 79.12,-267.83 79.12,-259.92 79.12,-259.92 79.12,-255.96 83.08,-252 87.04,-252 87.04,-252 187.71,-252 187.71,-252 191.67,-252 195.62,-255.96 195.62,-259.92 195.62,-259.92 195.62,-267.83 195.62,-267.83 195.62,-271.79 191.67,-275.75 187.71,-275.75"/>
<text xml:space="preserve" text-anchor="middle" x="137.38" y="-258.45" font-family="Arial" font-size="14.00" fill="#cfffac">.roo/rules/init.md</text>
</g>
<!-- .roo/rules/roo_rules.md -->
<g id="node8" class="node">
<title>.roo/rules/roo_rules.md</title>
<path fill="none" stroke="#cfffac" d="M207.21,-317.75C207.21,-317.75 67.54,-317.75 67.54,-317.75 63.58,-317.75 59.62,-313.79 59.62,-309.83 59.62,-309.83 59.62,-301.92 59.62,-301.92 59.62,-297.96 63.58,-294 67.54,-294 67.54,-294 207.21,-294 207.21,-294 211.17,-294 215.12,-297.96 215.12,-301.92 215.12,-301.92 215.12,-309.83 215.12,-309.83 215.12,-313.79 211.17,-317.75 207.21,-317.75"/>
<text xml:space="preserve" text-anchor="middle" x="137.38" y="-300.45" font-family="Arial" font-size="14.00" fill="#cfffac">.roo/rules/roo_rules.md</text>
</g>
<!-- .roo/rules/self_improve.md -->
<g id="node9" class="node">
<title>.roo/rules/self_improve.md</title>
<path fill="none" stroke="#cfffac" d="M217.71,-359.75C217.71,-359.75 57.04,-359.75 57.04,-359.75 53.08,-359.75 49.12,-355.79 49.12,-351.83 49.12,-351.83 49.12,-343.92 49.12,-343.92 49.12,-339.96 53.08,-336 57.04,-336 57.04,-336 217.71,-336 217.71,-336 221.67,-336 225.62,-339.96 225.62,-343.92 225.62,-343.92 225.62,-351.83 225.62,-351.83 225.62,-355.79 221.67,-359.75 217.71,-359.75"/>
<text xml:space="preserve" text-anchor="middle" x="137.38" y="-342.45" font-family="Arial" font-size="14.00" fill="#cfffac">.roo/rules/self_improve.md</text>
</g>
<!-- .roo/rules/taskmaster.md -->
<g id="node10" class="node">
<title>.roo/rules/taskmaster.md</title>
<path fill="none" stroke="#cfffac" d="M212.08,-401.75C212.08,-401.75 62.67,-401.75 62.67,-401.75 58.71,-401.75 54.75,-397.79 54.75,-393.83 54.75,-393.83 54.75,-385.92 54.75,-385.92 54.75,-381.96 58.71,-378 62.67,-378 62.67,-378 212.08,-378 212.08,-378 216.04,-378 220,-381.96 220,-385.92 220,-385.92 220,-393.83 220,-393.83 220,-397.79 216.04,-401.75 212.08,-401.75"/>
<text xml:space="preserve" text-anchor="middle" x="137.38" y="-384.45" font-family="Arial" font-size="14.00" fill="#cfffac">.roo/rules/taskmaster.md</text>
</g>
<!-- CLAUDE.md -->
<g id="node11" class="node">
<title>CLAUDE.md</title>
<path fill="none" stroke="#cfffac" d="M176.46,-443.75C176.46,-443.75 98.29,-443.75 98.29,-443.75 94.33,-443.75 90.38,-439.79 90.38,-435.83 90.38,-435.83 90.38,-427.92 90.38,-427.92 90.38,-423.96 94.33,-420 98.29,-420 98.29,-420 176.46,-420 176.46,-420 180.42,-420 184.38,-423.96 184.38,-427.92 184.38,-427.92 184.38,-435.83 184.38,-435.83 184.38,-439.79 180.42,-443.75 176.46,-443.75"/>
<text xml:space="preserve" text-anchor="middle" x="137.38" y="-426.45" font-family="Arial" font-size="14.00" fill="#cfffac">CLAUDE.md</text>
</g>
<!-- TEMPLATE_USAGE.md -->
<g id="node12" class="node">
<title>TEMPLATE_USAGE.md</title>
<path fill="none" stroke="#cfffac" d="M212.46,-485.75C212.46,-485.75 62.29,-485.75 62.29,-485.75 58.33,-485.75 54.38,-481.79 54.38,-477.83 54.38,-477.83 54.38,-469.92 54.38,-469.92 54.38,-465.96 58.33,-462 62.29,-462 62.29,-462 212.46,-462 212.46,-462 216.42,-462 220.38,-465.96 220.38,-469.92 220.38,-469.92 220.38,-477.83 220.38,-477.83 220.38,-481.79 216.42,-485.75 212.46,-485.75"/>
<text xml:space="preserve" text-anchor="middle" x="137.38" y="-468.45" font-family="Arial" font-size="14.00" fill="#cfffac">TEMPLATE_USAGE.md</text>
</g>
<!-- apps/docs/eslint.config.ts -->
<g id="node13" class="node">
<title>apps/docs/eslint.config.ts</title>
<path fill="none" stroke="#cfffac" d="M212.83,-527.75C212.83,-527.75 61.92,-527.75 61.92,-527.75 57.96,-527.75 54,-523.79 54,-519.83 54,-519.83 54,-511.92 54,-511.92 54,-507.96 57.96,-504 61.92,-504 61.92,-504 212.83,-504 212.83,-504 216.79,-504 220.75,-507.96 220.75,-511.92 220.75,-511.92 220.75,-519.83 220.75,-519.83 220.75,-523.79 216.79,-527.75 212.83,-527.75"/>
<text xml:space="preserve" text-anchor="middle" x="137.38" y="-510.45" font-family="Arial" font-size="14.00" fill="#cfffac">apps/docs/eslint.config.ts</text>
</g>
<!-- apps/docs/stories/button.stories.tsx -->
<g id="node14" class="node">
<title>apps/docs/stories/button.stories.tsx</title>
<path fill="none" stroke="#cfffac" d="M242.83,-569.75C242.83,-569.75 31.92,-569.75 31.92,-569.75 27.96,-569.75 24,-565.79 24,-561.83 24,-561.83 24,-553.92 24,-553.92 24,-549.96 27.96,-546 31.92,-546 31.92,-546 242.83,-546 242.83,-546 246.79,-546 250.75,-549.96 250.75,-553.92 250.75,-553.92 250.75,-561.83 250.75,-561.83 250.75,-565.79 246.79,-569.75 242.83,-569.75"/>
<text xml:space="preserve" text-anchor="middle" x="137.38" y="-552.45" font-family="Arial" font-size="14.00" fill="#cfffac">apps/docs/stories/button.stories.tsx</text>
</g>
<!-- apps/web/eslint.config.ts -->
<g id="node15" class="node">
<title>apps/web/eslint.config.ts</title>
<path fill="none" stroke="#cfffac" d="M210.96,-611.75C210.96,-611.75 63.79,-611.75 63.79,-611.75 59.83,-611.75 55.88,-607.79 55.88,-603.83 55.88,-603.83 55.88,-595.92 55.88,-595.92 55.88,-591.96 59.83,-588 63.79,-588 63.79,-588 210.96,-588 210.96,-588 214.92,-588 218.88,-591.96 218.88,-595.92 218.88,-595.92 218.88,-603.83 218.88,-603.83 218.88,-607.79 214.92,-611.75 210.96,-611.75"/>
<text xml:space="preserve" text-anchor="middle" x="137.38" y="-594.45" font-family="Arial" font-size="14.00" fill="#cfffac">apps/web/eslint.config.ts</text>
</g>
<!-- apps/web/src/app/example&#45;article/page.tsx -->
<g id="node16" class="node">
<title>apps/web/src/app/example&#45;article/page.tsx</title>
<path fill="none" stroke="#cfffac" d="M265.71,-653.75C265.71,-653.75 9.04,-653.75 9.04,-653.75 5.08,-653.75 1.12,-649.79 1.12,-645.83 1.12,-645.83 1.12,-637.92 1.12,-637.92 1.12,-633.96 5.08,-630 9.04,-630 9.04,-630 265.71,-630 265.71,-630 269.67,-630 273.62,-633.96 273.62,-637.92 273.62,-637.92 273.62,-645.83 273.62,-645.83 273.62,-649.79 269.67,-653.75 265.71,-653.75"/>
<text xml:space="preserve" text-anchor="middle" x="137.38" y="-636.45" font-family="Arial" font-size="14.00" fill="#cfffac">apps/web/src/app/example&#45;article/page.tsx</text>
</g>
<!-- apps/web/src/app/layout.tsx -->
<g id="node17" class="node">
<title>apps/web/src/app/layout.tsx</title>
<path fill="none" stroke="#cfffac" d="M220.71,-695.75C220.71,-695.75 54.04,-695.75 54.04,-695.75 50.08,-695.75 46.12,-691.79 46.12,-687.83 46.12,-687.83 46.12,-679.92 46.12,-679.92 46.12,-675.96 50.08,-672 54.04,-672 54.04,-672 220.71,-672 220.71,-672 224.67,-672 228.62,-675.96 228.62,-679.92 228.62,-679.92 228.62,-687.83 228.62,-687.83 228.62,-691.79 224.67,-695.75 220.71,-695.75"/>
<text xml:space="preserve" text-anchor="middle" x="137.38" y="-678.45" font-family="Arial" font-size="14.00" fill="#cfffac">apps/web/src/app/layout.tsx</text>
</g>
<!-- apps/web/src/app/opengraph&#45;image.tsx -->
<g id="node18" class="node">
<title>apps/web/src/app/opengraph&#45;image.tsx</title>
<path fill="none" stroke="#cfffac" d="M255.96,-737.75C255.96,-737.75 18.79,-737.75 18.79,-737.75 14.83,-737.75 10.88,-733.79 10.88,-729.83 10.88,-729.83 10.88,-721.92 10.88,-721.92 10.88,-717.96 14.83,-714 18.79,-714 18.79,-714 255.96,-714 255.96,-714 259.92,-714 263.88,-717.96 263.88,-721.92 263.88,-721.92 263.88,-729.83 263.88,-729.83 263.88,-733.79 259.92,-737.75 255.96,-737.75"/>
<text xml:space="preserve" text-anchor="middle" x="137.38" y="-720.45" font-family="Arial" font-size="14.00" fill="#cfffac">apps/web/src/app/opengraph&#45;image.tsx</text>
</g>
<!-- apps/web/src/app/page.tsx -->
<g id="node19" class="node">
<title>apps/web/src/app/page.tsx</title>
<path fill="none" stroke="#cfffac" d="M217.71,-779.75C217.71,-779.75 57.04,-779.75 57.04,-779.75 53.08,-779.75 49.12,-775.79 49.12,-771.83 49.12,-771.83 49.12,-763.92 49.12,-763.92 49.12,-759.96 53.08,-756 57.04,-756 57.04,-756 217.71,-756 217.71,-756 221.67,-756 225.62,-759.96 225.62,-763.92 225.62,-763.92 225.62,-771.83 225.62,-771.83 225.62,-775.79 221.67,-779.75 217.71,-779.75"/>
<text xml:space="preserve" text-anchor="middle" x="137.38" y="-762.45" font-family="Arial" font-size="14.00" fill="#cfffac">apps/web/src/app/page.tsx</text>
</g>
<!-- apps/web/src/components/button&#45;link.tsx -->
<g id="node20" class="node">
<title>apps/web/src/components/button&#45;link.tsx</title>
<path fill="none" stroke="#cfffac" d="M259.71,-821.75C259.71,-821.75 15.04,-821.75 15.04,-821.75 11.08,-821.75 7.12,-817.79 7.12,-813.83 7.12,-813.83 7.12,-805.92 7.12,-805.92 7.12,-801.96 11.08,-798 15.04,-798 15.04,-798 259.71,-798 259.71,-798 263.67,-798 267.62,-801.96 267.62,-805.92 267.62,-805.92 267.62,-813.83 267.62,-813.83 267.62,-817.79 263.67,-821.75 259.71,-821.75"/>
<text xml:space="preserve" text-anchor="middle" x="137.38" y="-804.45" font-family="Arial" font-size="14.00" fill="#cfffac">apps/web/src/components/button&#45;link.tsx</text>
</g>
<!-- apps/web/src/components/json&#45;ld&#45;script.tsx -->
<g id="node21" class="node">
<title>apps/web/src/components/json&#45;ld&#45;script.tsx</title>
<path fill="none" stroke="#cfffac" d="M266.83,-863.75C266.83,-863.75 7.92,-863.75 7.92,-863.75 3.96,-863.75 0,-859.79 0,-855.83 0,-855.83 0,-847.92 0,-847.92 0,-843.96 3.96,-840 7.92,-840 7.92,-840 266.83,-840 266.83,-840 270.79,-840 274.75,-843.96 274.75,-847.92 274.75,-847.92 274.75,-855.83 274.75,-855.83 274.75,-859.79 270.79,-863.75 266.83,-863.75"/>
<text xml:space="preserve" text-anchor="middle" x="137.38" y="-846.45" font-family="Arial" font-size="14.00" fill="#cfffac">apps/web/src/components/json&#45;ld&#45;script.tsx</text>
</g>
<!-- apps/web/src/components/providers.tsx -->
<g id="node22" class="node">
<title>apps/web/src/components/providers.tsx</title>
<path fill="none" stroke="#cfffac" d="M256.33,-905.75C256.33,-905.75 18.42,-905.75 18.42,-905.75 14.46,-905.75 10.5,-901.79 10.5,-897.83 10.5,-897.83 10.5,-889.92 10.5,-889.92 10.5,-885.96 14.46,-882 18.42,-882 18.42,-882 256.33,-882 256.33,-882 260.29,-882 264.25,-885.96 264.25,-889.92 264.25,-889.92 264.25,-897.83 264.25,-897.83 264.25,-901.79 260.29,-905.75 256.33,-905.75"/>
<text xml:space="preserve" text-anchor="middle" x="137.38" y="-888.45" font-family="Arial" font-size="14.00" fill="#cfffac">apps/web/src/components/providers.tsx</text>
</g>
<!-- apps/web/src/const/sns.ts -->
<g id="node23" class="node">
<title>apps/web/src/const/sns.ts</title>
<path fill="none" stroke="#cfffac" d="M214.71,-947.75C214.71,-947.75 60.04,-947.75 60.04,-947.75 56.08,-947.75 52.12,-943.79 52.12,-939.83 52.12,-939.83 52.12,-931.92 52.12,-931.92 52.12,-927.96 56.08,-924 60.04,-924 60.04,-924 214.71,-924 214.71,-924 218.67,-924 222.62,-927.96 222.62,-931.92 222.62,-931.92 222.62,-939.83 222.62,-939.83 222.62,-943.79 218.67,-947.75 214.71,-947.75"/>
<text xml:space="preserve" text-anchor="middle" x="137.38" y="-930.45" font-family="Arial" font-size="14.00" fill="#cfffac">apps/web/src/const/sns.ts</text>
</g>
<!-- apps/web/src/lib/fonts/index.ts -->
<g id="node24" class="node">
<title>apps/web/src/lib/fonts/index.ts</title>
<path fill="none" stroke="#c6c5fe" d="M227.46,-989.75C227.46,-989.75 47.29,-989.75 47.29,-989.75 43.33,-989.75 39.38,-985.79 39.38,-981.83 39.38,-981.83 39.38,-973.92 39.38,-973.92 39.38,-969.96 43.33,-966 47.29,-966 47.29,-966 227.46,-966 227.46,-966 231.42,-966 235.38,-969.96 235.38,-973.92 235.38,-973.92 235.38,-981.83 235.38,-981.83 235.38,-985.79 231.42,-989.75 227.46,-989.75"/>
<text xml:space="preserve" text-anchor="middle" x="137.38" y="-972.45" font-family="Arial" font-size="14.00" fill="#c6c5fe">apps/web/src/lib/fonts/index.ts</text>
</g>
<!-- apps/web/src/lib/fonts/noto&#45;sans.ts -->
<g id="node25" class="node">
<title>apps/web/src/lib/fonts/noto&#45;sans.ts</title>
<path fill="none" stroke="#cfffac" d="M550.21,-1010.75C550.21,-1010.75 343.04,-1010.75 343.04,-1010.75 339.08,-1010.75 335.12,-1006.79 335.12,-1002.83 335.12,-1002.83 335.12,-994.92 335.12,-994.92 335.12,-990.96 339.08,-987 343.04,-987 343.04,-987 550.21,-987 550.21,-987 554.17,-987 558.12,-990.96 558.12,-994.92 558.12,-994.92 558.12,-1002.83 558.12,-1002.83 558.12,-1006.79 554.17,-1010.75 550.21,-1010.75"/>
<text xml:space="preserve" text-anchor="middle" x="446.62" y="-993.45" font-family="Arial" font-size="14.00" fill="#cfffac">apps/web/src/lib/fonts/noto&#45;sans.ts</text>
</g>
<!-- apps/web/src/lib/fonts/index.ts&#45;&gt;apps/web/src/lib/fonts/noto&#45;sans.ts -->
<g id="edge1" class="edge">
<title>apps/web/src/lib/fonts/index.ts&#45;&gt;apps/web/src/lib/fonts/noto&#45;sans.ts</title>
<path fill="none" stroke="#757575" d="M235.59,-984.52C263.57,-986.43 294.46,-988.54 323.73,-990.54"/>
<polygon fill="#757575" stroke="#757575" points="323.14,-994.01 333.35,-991.2 323.62,-987.03 323.14,-994.01"/>
</g>
<!-- apps/web/src/lib/fonts/noto&#45;serif.ts -->
<g id="node26" class="node">
<title>apps/web/src/lib/fonts/noto&#45;serif.ts</title>
<path fill="none" stroke="#cfffac" d="M548.71,-968.75C548.71,-968.75 344.54,-968.75 344.54,-968.75 340.58,-968.75 336.62,-964.79 336.62,-960.83 336.62,-960.83 336.62,-952.92 336.62,-952.92 336.62,-948.96 340.58,-945 344.54,-945 344.54,-945 548.71,-945 548.71,-945 552.67,-945 556.62,-948.96 556.62,-952.92 556.62,-952.92 556.62,-960.83 556.62,-960.83 556.62,-964.79 552.67,-968.75 548.71,-968.75"/>
<text xml:space="preserve" text-anchor="middle" x="446.62" y="-951.45" font-family="Arial" font-size="14.00" fill="#cfffac">apps/web/src/lib/fonts/noto&#45;serif.ts</text>
</g>
<!-- apps/web/src/lib/fonts/index.ts&#45;&gt;apps/web/src/lib/fonts/noto&#45;serif.ts -->
<g id="edge2" class="edge">
<title>apps/web/src/lib/fonts/index.ts&#45;&gt;apps/web/src/lib/fonts/noto&#45;serif.ts</title>
<path fill="none" stroke="#757575" d="M235.59,-971.23C263.96,-969.29 295.32,-967.15 324.95,-965.12"/>
<polygon fill="#757575" stroke="#757575" points="324.97,-968.63 334.71,-964.46 324.49,-961.65 324.97,-968.63"/>
</g>
<!-- apps/web/src/lib/json&#45;ld/breadcrumb&#45;list.ts -->
<g id="node27" class="node">
<title>apps/web/src/lib/json&#45;ld/breadcrumb&#45;list.ts</title>
<path fill="none" stroke="#cfffac" d="M572.71,-1178.75C572.71,-1178.75 320.54,-1178.75 320.54,-1178.75 316.58,-1178.75 312.62,-1174.79 312.62,-1170.83 312.62,-1170.83 312.62,-1162.92 312.62,-1162.92 312.62,-1158.96 316.58,-1155 320.54,-1155 320.54,-1155 572.71,-1155 572.71,-1155 576.67,-1155 580.62,-1158.96 580.62,-1162.92 580.62,-1162.92 580.62,-1170.83 580.62,-1170.83 580.62,-1174.79 576.67,-1178.75 572.71,-1178.75"/>
<text xml:space="preserve" text-anchor="middle" x="446.62" y="-1161.45" font-family="Arial" font-size="14.00" fill="#cfffac">apps/web/src/lib/json&#45;ld/breadcrumb&#45;list.ts</text>
</g>
<!-- apps/web/src/lib/json&#45;ld/generate&#45;json&#45;ld.ts -->
<g id="node28" class="node">
<title>apps/web/src/lib/json&#45;ld/generate&#45;json&#45;ld.ts</title>
<path fill="none" stroke="#cfffac" d="M574.58,-1136.75C574.58,-1136.75 318.67,-1136.75 318.67,-1136.75 314.71,-1136.75 310.75,-1132.79 310.75,-1128.83 310.75,-1128.83 310.75,-1120.92 310.75,-1120.92 310.75,-1116.96 314.71,-1113 318.67,-1113 318.67,-1113 574.58,-1113 574.58,-1113 578.54,-1113 582.5,-1116.96 582.5,-1120.92 582.5,-1120.92 582.5,-1128.83 582.5,-1128.83 582.5,-1132.79 578.54,-1136.75 574.58,-1136.75"/>
<text xml:space="preserve" text-anchor="middle" x="446.62" y="-1119.45" font-family="Arial" font-size="14.00" fill="#cfffac">apps/web/src/lib/json&#45;ld/generate&#45;json&#45;ld.ts</text>
</g>
<!-- apps/web/src/lib/json&#45;ld/index.ts -->
<g id="node29" class="node">
<title>apps/web/src/lib/json&#45;ld/index.ts</title>
<path fill="none" stroke="#c6c5fe" d="M232.71,-1115.75C232.71,-1115.75 42.04,-1115.75 42.04,-1115.75 38.08,-1115.75 34.12,-1111.79 34.12,-1107.83 34.12,-1107.83 34.12,-1099.92 34.12,-1099.92 34.12,-1095.96 38.08,-1092 42.04,-1092 42.04,-1092 232.71,-1092 232.71,-1092 236.67,-1092 240.62,-1095.96 240.62,-1099.92 240.62,-1099.92 240.62,-1107.83 240.62,-1107.83 240.62,-1111.79 236.67,-1115.75 232.71,-1115.75"/>
<text xml:space="preserve" text-anchor="middle" x="137.38" y="-1098.45" font-family="Arial" font-size="14.00" fill="#c6c5fe">apps/web/src/lib/json&#45;ld/index.ts</text>
</g>
<!-- apps/web/src/lib/json&#45;ld/index.ts&#45;&gt;apps/web/src/lib/json&#45;ld/breadcrumb&#45;list.ts -->
<g id="edge3" class="edge">
<title>apps/web/src/lib/json&#45;ld/index.ts&#45;&gt;apps/web/src/lib/json&#45;ld/breadcrumb&#45;list.ts</title>
<path fill="none" stroke="#757575" d="M241.06,-1115.41C252.58,-1117.96 264.02,-1121.08 274.75,-1124.88 292.21,-1131.06 293.29,-1139.68 310.75,-1145.88 316.9,-1148.06 323.29,-1150.02 329.8,-1151.77"/>
<polygon fill="#757575" stroke="#757575" points="328.81,-1155.13 339.36,-1154.17 330.51,-1148.34 328.81,-1155.13"/>
</g>
<!-- apps/web/src/lib/json&#45;ld/index.ts&#45;&gt;apps/web/src/lib/json&#45;ld/generate&#45;json&#45;ld.ts -->
<g id="edge4" class="edge">
<title>apps/web/src/lib/json&#45;ld/index.ts&#45;&gt;apps/web/src/lib/json&#45;ld/generate&#45;json&#45;ld.ts</title>
<path fill="none" stroke="#757575" d="M241.11,-1110.9C259.79,-1112.17 279.6,-1113.53 299.26,-1114.87"/>
<polygon fill="#757575" stroke="#757575" points="298.75,-1118.34 308.97,-1115.53 299.23,-1111.36 298.75,-1118.34"/>
</g>
<!-- apps/web/src/lib/json&#45;ld/local&#45;business.ts -->
<g id="node30" class="node">
<title>apps/web/src/lib/json&#45;ld/local&#45;business.ts</title>
<path fill="none" stroke="#cfffac" d="M568.58,-1094.75C568.58,-1094.75 324.67,-1094.75 324.67,-1094.75 320.71,-1094.75 316.75,-1090.79 316.75,-1086.83 316.75,-1086.83 316.75,-1078.92 316.75,-1078.92 316.75,-1074.96 320.71,-1071 324.67,-1071 324.67,-1071 568.58,-1071 568.58,-1071 572.54,-1071 576.5,-1074.96 576.5,-1078.92 576.5,-1078.92 576.5,-1086.83 576.5,-1086.83 576.5,-1090.79 572.54,-1094.75 568.58,-1094.75"/>
<text xml:space="preserve" text-anchor="middle" x="446.62" y="-1077.45" font-family="Arial" font-size="14.00" fill="#cfffac">apps/web/src/lib/json&#45;ld/local&#45;business.ts</text>
</g>
<!-- apps/web/src/lib/json&#45;ld/index.ts&#45;&gt;apps/web/src/lib/json&#45;ld/local&#45;business.ts -->
<g id="edge5" class="edge">
<title>apps/web/src/lib/json&#45;ld/index.ts&#45;&gt;apps/web/src/lib/json&#45;ld/local&#45;business.ts</title>
<path fill="none" stroke="#757575" d="M241.11,-1096.85C261.69,-1095.45 283.64,-1093.95 305.23,-1092.47"/>
<polygon fill="#757575" stroke="#757575" points="305.24,-1095.98 314.97,-1091.8 304.76,-1088.99 305.24,-1095.98"/>
</g>
<!-- apps/web/src/lib/json&#45;ld/organization.ts -->
<g id="node31" class="node">
<title>apps/web/src/lib/json&#45;ld/organization.ts</title>
<path fill="none" stroke="#cfffac" d="M562.58,-1052.75C562.58,-1052.75 330.67,-1052.75 330.67,-1052.75 326.71,-1052.75 322.75,-1048.79 322.75,-1044.83 322.75,-1044.83 322.75,-1036.92 322.75,-1036.92 322.75,-1032.96 326.71,-1029 330.67,-1029 330.67,-1029 562.58,-1029 562.58,-1029 566.54,-1029 570.5,-1032.96 570.5,-1036.92 570.5,-1036.92 570.5,-1044.83 570.5,-1044.83 570.5,-1048.79 566.54,-1052.75 562.58,-1052.75"/>
<text xml:space="preserve" text-anchor="middle" x="446.62" y="-1035.45" font-family="Arial" font-size="14.00" fill="#cfffac">apps/web/src/lib/json&#45;ld/organization.ts</text>
</g>
<!-- apps/web/src/lib/json&#45;ld/index.ts&#45;&gt;apps/web/src/lib/json&#45;ld/organization.ts -->
<g id="edge6" class="edge">
<title>apps/web/src/lib/json&#45;ld/index.ts&#45;&gt;apps/web/src/lib/json&#45;ld/organization.ts</title>
<path fill="none" stroke="#757575" d="M184.23,-1091.58C218.83,-1082.58 267.55,-1070.48 310.75,-1061.88 322.79,-1059.47 335.49,-1057.19 348.08,-1055.06"/>
<polygon fill="#757575" stroke="#757575" points="348.3,-1058.57 357.6,-1053.49 347.16,-1051.67 348.3,-1058.57"/>
</g>
<!-- apps/web/src/lib/metadata.ts -->
<g id="node32" class="node">
<title>apps/web/src/lib/metadata.ts</title>
<path fill="none" stroke="#cfffac" d="M223.33,-1157.75C223.33,-1157.75 51.42,-1157.75 51.42,-1157.75 47.46,-1157.75 43.5,-1153.79 43.5,-1149.83 43.5,-1149.83 43.5,-1141.92 43.5,-1141.92 43.5,-1137.96 47.46,-1134 51.42,-1134 51.42,-1134 223.33,-1134 223.33,-1134 227.29,-1134 231.25,-1137.96 231.25,-1141.92 231.25,-1141.92 231.25,-1149.83 231.25,-1149.83 231.25,-1153.79 227.29,-1157.75 223.33,-1157.75"/>
<text xml:space="preserve" text-anchor="middle" x="137.38" y="-1140.45" font-family="Arial" font-size="14.00" fill="#cfffac">apps/web/src/lib/metadata.ts</text>
</g>
<!-- packages/ui/eslint.config.ts -->
<g id="node33" class="node">
<title>packages/ui/eslint.config.ts</title>
<path fill="none" stroke="#cfffac" d="M218.08,-1199.75C218.08,-1199.75 56.67,-1199.75 56.67,-1199.75 52.71,-1199.75 48.75,-1195.79 48.75,-1191.83 48.75,-1191.83 48.75,-1183.92 48.75,-1183.92 48.75,-1179.96 52.71,-1176 56.67,-1176 56.67,-1176 218.08,-1176 218.08,-1176 222.04,-1176 226,-1179.96 226,-1183.92 226,-1183.92 226,-1191.83 226,-1191.83 226,-1195.79 222.04,-1199.75 218.08,-1199.75"/>
<text xml:space="preserve" text-anchor="middle" x="137.38" y="-1182.45" font-family="Arial" font-size="14.00" fill="#cfffac">packages/ui/eslint.config.ts</text>
</g>
<!-- packages/ui/src/components/badge.tsx -->
<g id="node34" class="node">
<title>packages/ui/src/components/badge.tsx</title>
<path fill="none" stroke="#cfffac" d="M254.46,-1241.75C254.46,-1241.75 20.29,-1241.75 20.29,-1241.75 16.33,-1241.75 12.38,-1237.79 12.38,-1233.83 12.38,-1233.83 12.38,-1225.92 12.38,-1225.92 12.38,-1221.96 16.33,-1218 20.29,-1218 20.29,-1218 254.46,-1218 254.46,-1218 258.42,-1218 262.38,-1221.96 262.38,-1225.92 262.38,-1225.92 262.38,-1233.83 262.38,-1233.83 262.38,-1237.79 258.42,-1241.75 254.46,-1241.75"/>
<text xml:space="preserve" text-anchor="middle" x="137.38" y="-1224.45" font-family="Arial" font-size="14.00" fill="#cfffac">packages/ui/src/components/badge.tsx</text>
</g>
<!-- packages/ui/src/components/button.tsx -->
<g id="node35" class="node">
<title>packages/ui/src/components/button.tsx</title>
<path fill="none" stroke="#cfffac" d="M254.46,-1283.75C254.46,-1283.75 20.29,-1283.75 20.29,-1283.75 16.33,-1283.75 12.38,-1279.79 12.38,-1275.83 12.38,-1275.83 12.38,-1267.92 12.38,-1267.92 12.38,-1263.96 16.33,-1260 20.29,-1260 20.29,-1260 254.46,-1260 254.46,-1260 258.42,-1260 262.38,-1263.96 262.38,-1267.92 262.38,-1267.92 262.38,-1275.83 262.38,-1275.83 262.38,-1279.79 258.42,-1283.75 254.46,-1283.75"/>
<text xml:space="preserve" text-anchor="middle" x="137.38" y="-1266.45" font-family="Arial" font-size="14.00" fill="#cfffac">packages/ui/src/components/button.tsx</text>
</g>
<!-- packages/ui/src/components/card.tsx -->
<g id="node36" class="node">
<title>packages/ui/src/components/card.tsx</title>
<path fill="none" stroke="#cfffac" d="M248.83,-1325.75C248.83,-1325.75 25.92,-1325.75 25.92,-1325.75 21.96,-1325.75 18,-1321.79 18,-1317.83 18,-1317.83 18,-1309.92 18,-1309.92 18,-1305.96 21.96,-1302 25.92,-1302 25.92,-1302 248.83,-1302 248.83,-1302 252.79,-1302 256.75,-1305.96 256.75,-1309.92 256.75,-1309.92 256.75,-1317.83 256.75,-1317.83 256.75,-1321.79 252.79,-1325.75 248.83,-1325.75"/>
<text xml:space="preserve" text-anchor="middle" x="137.38" y="-1308.45" font-family="Arial" font-size="14.00" fill="#cfffac">packages/ui/src/components/card.tsx</text>
</g>
<!-- packages/ui/src/lib/utils.ts -->
<g id="node37" class="node">
<title>packages/ui/src/lib/utils.ts</title>
<path fill="none" stroke="#cfffac" d="M213.96,-1367.75C213.96,-1367.75 60.79,-1367.75 60.79,-1367.75 56.83,-1367.75 52.88,-1363.79 52.88,-1359.83 52.88,-1359.83 52.88,-1351.92 52.88,-1351.92 52.88,-1347.96 56.83,-1344 60.79,-1344 60.79,-1344 213.96,-1344 213.96,-1344 217.92,-1344 221.88,-1347.96 221.88,-1351.92 221.88,-1351.92 221.88,-1359.83 221.88,-1359.83 221.88,-1363.79 217.92,-1367.75 213.96,-1367.75"/>
<text xml:space="preserve" text-anchor="middle" x="137.38" y="-1350.45" font-family="Arial" font-size="14.00" fill="#cfffac">packages/ui/src/lib/utils.ts</text>
</g>
<!-- packages/ui/src/styles/globals.css -->
<g id="node38" class="node">
<title>packages/ui/src/styles/globals.css</title>
<path fill="none" stroke="#cfffac" d="M238.71,-1409.75C238.71,-1409.75 36.04,-1409.75 36.04,-1409.75 32.08,-1409.75 28.12,-1405.79 28.12,-1401.83 28.12,-1401.83 28.12,-1393.92 28.12,-1393.92 28.12,-1389.96 32.08,-1386 36.04,-1386 36.04,-1386 238.71,-1386 238.71,-1386 242.67,-1386 246.62,-1389.96 246.62,-1393.92 246.62,-1393.92 246.62,-1401.83 246.62,-1401.83 246.62,-1405.79 242.67,-1409.75 238.71,-1409.75"/>
<text xml:space="preserve" text-anchor="middle" x="137.38" y="-1392.45" font-family="Arial" font-size="14.00" fill="#cfffac">packages/ui/src/styles/globals.css</text>
</g>
<!-- scripts/clean&#45;install.ts -->
<g id="node39" class="node">
<title>scripts/clean&#45;install.ts</title>
<path fill="none" stroke="#cfffac" d="M201.58,-1451.75C201.58,-1451.75 73.17,-1451.75 73.17,-1451.75 69.21,-1451.75 65.25,-1447.79 65.25,-1443.83 65.25,-1443.83 65.25,-1435.92 65.25,-1435.92 65.25,-1431.96 69.21,-1428 73.17,-1428 73.17,-1428 201.58,-1428 201.58,-1428 205.54,-1428 209.5,-1431.96 209.5,-1435.92 209.5,-1435.92 209.5,-1443.83 209.5,-1443.83 209.5,-1447.79 205.54,-1451.75 201.58,-1451.75"/>
<text xml:space="preserve" text-anchor="middle" x="137.38" y="-1434.45" font-family="Arial" font-size="14.00" fill="#cfffac">scripts/clean&#45;install.ts</text>
</g>
<!-- scripts/generate/index&#45;files.ts -->
<g id="node40" class="node">
<title>scripts/generate/index&#45;files.ts</title>
<path fill="none" stroke="#cfffac" d="M224.83,-1493.75C224.83,-1493.75 49.92,-1493.75 49.92,-1493.75 45.96,-1493.75 42,-1489.79 42,-1485.83 42,-1485.83 42,-1477.92 42,-1477.92 42,-1473.96 45.96,-1470 49.92,-1470 49.92,-1470 224.83,-1470 224.83,-1470 228.79,-1470 232.75,-1473.96 232.75,-1477.92 232.75,-1477.92 232.75,-1485.83 232.75,-1485.83 232.75,-1489.79 228.79,-1493.75 224.83,-1493.75"/>
<text xml:space="preserve" text-anchor="middle" x="137.38" y="-1476.45" font-family="Arial" font-size="14.00" fill="#cfffac">scripts/generate/index&#45;files.ts</text>
</g>
</g>
</svg>
